<?xml version="1.0" encoding="utf-8" standalone="no"?>
<!DOCTYPE svg PUBLIC "-//W3C//DTD SVG 1.1//EN"
  "http://www.w3.org/Graphics/SVG/1.1/DTD/svg11.dtd">
<svg xmlns:xlink="http://www.w3.org/1999/xlink" width="433.430025pt" height="311.215387pt" viewBox="0 0 433.430025 311.215387" xmlns="http://www.w3.org/2000/svg" version="1.1">
 <metadata>
  <rdf:RDF xmlns:dc="http://purl.org/dc/elements/1.1/" xmlns:cc="http://creativecommons.org/ns#" xmlns:rdf="http://www.w3.org/1999/02/22-rdf-syntax-ns#">
   <cc:Work>
    <dc:type rdf:resource="http://purl.org/dc/dcmitype/StillImage"/>
    <dc:date>2022-06-15T12:36:05.979375</dc:date>
    <dc:format>image/svg+xml</dc:format>
    <dc:creator>
     <cc:Agent>
      <dc:title>Matplotlib v3.5.1, https://matplotlib.org/</dc:title>
     </cc:Agent>
    </dc:creator>
   </cc:Work>
  </rdf:RDF>
 </metadata>
 <defs>
  <style type="text/css">*{stroke-linejoin: round; stroke-linecap: butt}</style>
 </defs>
 <g id="figure_1">
  <g id="patch_1">
   <path d="M 0 311.215387 
L 433.430025 311.215387 
L 433.430025 0 
L 0 0 
L 0 311.215387 
z
" style="fill: none"/>
  </g>
  <g id="axes_1">
   <g id="patch_2">
    <path d="M 88.357031 244.317187 
L 423.157031 244.317187 
L 423.157031 26.877187 
L 88.357031 26.877187 
L 88.357031 244.317187 
z
" style="fill: none"/>
   </g>
   <g id="matplotlib.axis_1">
    <g id="xtick_1">
     <g id="line2d_1">
      <defs>
       <path id="mb47edc0a3a" d="M 0 0 
L 0 9 
" style="stroke: #ffc1a8; stroke-width: 1.875"/>
      </defs>
      <g>
       <use xlink:href="#mb47edc0a3a" x="103.575213" y="244.317187" style="fill: #ffc1a8; stroke: #ffc1a8; stroke-width: 1.875"/>
      </g>
     </g>
     <g id="text_1">
      <!-- 0 -->
      <g style="fill: #ffc1a8" transform="translate(100.199915 272.189081)rotate(-20)scale(0.165 -0.165)">
       <defs>
        <path id="DejaVuSans-30" d="M 2034 4250 
Q 1547 4250 1301 3770 
Q 1056 3291 1056 2328 
Q 1056 1369 1301 889 
Q 1547 409 2034 409 
Q 2525 409 2770 889 
Q 3016 1369 3016 2328 
Q 3016 3291 2770 3770 
Q 2525 4250 2034 4250 
z
M 2034 4750 
Q 2819 4750 3233 4129 
Q 3647 3509 3647 2328 
Q 3647 1150 3233 529 
Q 2819 -91 2034 -91 
Q 1250 -91 836 529 
Q 422 1150 422 2328 
Q 422 3509 836 4129 
Q 1250 4750 2034 4750 
z
" transform="scale(0.015625)"/>
       </defs>
       <use xlink:href="#DejaVuSans-30"/>
      </g>
     </g>
    </g>
    <g id="xtick_2">
     <g id="line2d_2">
      <g>
       <use xlink:href="#mb47edc0a3a" x="179.856826" y="244.317187" style="fill: #ffc1a8; stroke: #ffc1a8; stroke-width: 1.875"/>
      </g>
     </g>
     <g id="text_2">
      <!-- 100 -->
      <g style="fill: #ffc1a8" transform="translate(166.616517 279.370221)rotate(-20)scale(0.165 -0.165)">
       <defs>
        <path id="DejaVuSans-31" d="M 794 531 
L 1825 531 
L 1825 4091 
L 703 3866 
L 703 4441 
L 1819 4666 
L 2450 4666 
L 2450 531 
L 3481 531 
L 3481 0 
L 794 0 
L 794 531 
z
" transform="scale(0.015625)"/>
       </defs>
       <use xlink:href="#DejaVuSans-31"/>
       <use xlink:href="#DejaVuSans-30" x="63.623047"/>
       <use xlink:href="#DejaVuSans-30" x="127.246094"/>
      </g>
     </g>
    </g>
    <g id="xtick_3">
     <g id="line2d_3">
      <g>
       <use xlink:href="#mb47edc0a3a" x="256.138439" y="244.317187" style="fill: #ffc1a8; stroke: #ffc1a8; stroke-width: 1.875"/>
      </g>
     </g>
     <g id="text_3">
      <!-- 200 -->
      <g style="fill: #ffc1a8" transform="translate(242.89813 279.370221)rotate(-20)scale(0.165 -0.165)">
       <defs>
        <path id="DejaVuSans-32" d="M 1228 531 
L 3431 531 
L 3431 0 
L 469 0 
L 469 531 
Q 828 903 1448 1529 
Q 2069 2156 2228 2338 
Q 2531 2678 2651 2914 
Q 2772 3150 2772 3378 
Q 2772 3750 2511 3984 
Q 2250 4219 1831 4219 
Q 1534 4219 1204 4116 
Q 875 4013 500 3803 
L 500 4441 
Q 881 4594 1212 4672 
Q 1544 4750 1819 4750 
Q 2544 4750 2975 4387 
Q 3406 4025 3406 3419 
Q 3406 3131 3298 2873 
Q 3191 2616 2906 2266 
Q 2828 2175 2409 1742 
Q 1991 1309 1228 531 
z
" transform="scale(0.015625)"/>
       </defs>
       <use xlink:href="#DejaVuSans-32"/>
       <use xlink:href="#DejaVuSans-30" x="63.623047"/>
       <use xlink:href="#DejaVuSans-30" x="127.246094"/>
      </g>
     </g>
    </g>
    <g id="xtick_4">
     <g id="line2d_4">
      <g>
       <use xlink:href="#mb47edc0a3a" x="332.420052" y="244.317187" style="fill: #ffc1a8; stroke: #ffc1a8; stroke-width: 1.875"/>
      </g>
     </g>
     <g id="text_4">
      <!-- 300 -->
      <g style="fill: #ffc1a8" transform="translate(319.179744 279.370221)rotate(-20)scale(0.165 -0.165)">
       <defs>
        <path id="DejaVuSans-33" d="M 2597 2516 
Q 3050 2419 3304 2112 
Q 3559 1806 3559 1356 
Q 3559 666 3084 287 
Q 2609 -91 1734 -91 
Q 1441 -91 1130 -33 
Q 819 25 488 141 
L 488 750 
Q 750 597 1062 519 
Q 1375 441 1716 441 
Q 2309 441 2620 675 
Q 2931 909 2931 1356 
Q 2931 1769 2642 2001 
Q 2353 2234 1838 2234 
L 1294 2234 
L 1294 2753 
L 1863 2753 
Q 2328 2753 2575 2939 
Q 2822 3125 2822 3475 
Q 2822 3834 2567 4026 
Q 2313 4219 1838 4219 
Q 1578 4219 1281 4162 
Q 984 4106 628 3988 
L 628 4550 
Q 988 4650 1302 4700 
Q 1616 4750 1894 4750 
Q 2613 4750 3031 4423 
Q 3450 4097 3450 3541 
Q 3450 3153 3228 2886 
Q 3006 2619 2597 2516 
z
" transform="scale(0.015625)"/>
       </defs>
       <use xlink:href="#DejaVuSans-33"/>
       <use xlink:href="#DejaVuSans-30" x="63.623047"/>
       <use xlink:href="#DejaVuSans-30" x="127.246094"/>
      </g>
     </g>
    </g>
    <g id="xtick_5">
     <g id="line2d_5">
      <g>
       <use xlink:href="#mb47edc0a3a" x="408.701666" y="244.317187" style="fill: #ffc1a8; stroke: #ffc1a8; stroke-width: 1.875"/>
      </g>
     </g>
     <g id="text_5">
      <!-- 400 -->
      <g style="fill: #ffc1a8" transform="translate(395.461357 279.370221)rotate(-20)scale(0.165 -0.165)">
       <defs>
        <path id="DejaVuSans-34" d="M 2419 4116 
L 825 1625 
L 2419 1625 
L 2419 4116 
z
M 2253 4666 
L 3047 4666 
L 3047 1625 
L 3713 1625 
L 3713 1100 
L 3047 1100 
L 3047 0 
L 2419 0 
L 2419 1100 
L 313 1100 
L 313 1709 
L 2253 4666 
z
" transform="scale(0.015625)"/>
       </defs>
       <use xlink:href="#DejaVuSans-34"/>
       <use xlink:href="#DejaVuSans-30" x="63.623047"/>
       <use xlink:href="#DejaVuSans-30" x="127.246094"/>
      </g>
     </g>
    </g>
    <g id="text_6">
     <!-- Training Epoch -->
     <g style="fill: #ffc1a8" transform="translate(189.830625 300.271949)scale(0.18 -0.18)">
      <defs>
       <path id="DejaVuSans-54" d="M -19 4666 
L 3928 4666 
L 3928 4134 
L 2272 4134 
L 2272 0 
L 1638 0 
L 1638 4134 
L -19 4134 
L -19 4666 
z
" transform="scale(0.015625)"/>
       <path id="DejaVuSans-72" d="M 2631 2963 
Q 2534 3019 2420 3045 
Q 2306 3072 2169 3072 
Q 1681 3072 1420 2755 
Q 1159 2438 1159 1844 
L 1159 0 
L 581 0 
L 581 3500 
L 1159 3500 
L 1159 2956 
Q 1341 3275 1631 3429 
Q 1922 3584 2338 3584 
Q 2397 3584 2469 3576 
Q 2541 3569 2628 3553 
L 2631 2963 
z
" transform="scale(0.015625)"/>
       <path id="DejaVuSans-61" d="M 2194 1759 
Q 1497 1759 1228 1600 
Q 959 1441 959 1056 
Q 959 750 1161 570 
Q 1363 391 1709 391 
Q 2188 391 2477 730 
Q 2766 1069 2766 1631 
L 2766 1759 
L 2194 1759 
z
M 3341 1997 
L 3341 0 
L 2766 0 
L 2766 531 
Q 2569 213 2275 61 
Q 1981 -91 1556 -91 
Q 1019 -91 701 211 
Q 384 513 384 1019 
Q 384 1609 779 1909 
Q 1175 2209 1959 2209 
L 2766 2209 
L 2766 2266 
Q 2766 2663 2505 2880 
Q 2244 3097 1772 3097 
Q 1472 3097 1187 3025 
Q 903 2953 641 2809 
L 641 3341 
Q 956 3463 1253 3523 
Q 1550 3584 1831 3584 
Q 2591 3584 2966 3190 
Q 3341 2797 3341 1997 
z
" transform="scale(0.015625)"/>
       <path id="DejaVuSans-69" d="M 603 3500 
L 1178 3500 
L 1178 0 
L 603 0 
L 603 3500 
z
M 603 4863 
L 1178 4863 
L 1178 4134 
L 603 4134 
L 603 4863 
z
" transform="scale(0.015625)"/>
       <path id="DejaVuSans-6e" d="M 3513 2113 
L 3513 0 
L 2938 0 
L 2938 2094 
Q 2938 2591 2744 2837 
Q 2550 3084 2163 3084 
Q 1697 3084 1428 2787 
Q 1159 2491 1159 1978 
L 1159 0 
L 581 0 
L 581 3500 
L 1159 3500 
L 1159 2956 
Q 1366 3272 1645 3428 
Q 1925 3584 2291 3584 
Q 2894 3584 3203 3211 
Q 3513 2838 3513 2113 
z
" transform="scale(0.015625)"/>
       <path id="DejaVuSans-67" d="M 2906 1791 
Q 2906 2416 2648 2759 
Q 2391 3103 1925 3103 
Q 1463 3103 1205 2759 
Q 947 2416 947 1791 
Q 947 1169 1205 825 
Q 1463 481 1925 481 
Q 2391 481 2648 825 
Q 2906 1169 2906 1791 
z
M 3481 434 
Q 3481 -459 3084 -895 
Q 2688 -1331 1869 -1331 
Q 1566 -1331 1297 -1286 
Q 1028 -1241 775 -1147 
L 775 -588 
Q 1028 -725 1275 -790 
Q 1522 -856 1778 -856 
Q 2344 -856 2625 -561 
Q 2906 -266 2906 331 
L 2906 616 
Q 2728 306 2450 153 
Q 2172 0 1784 0 
Q 1141 0 747 490 
Q 353 981 353 1791 
Q 353 2603 747 3093 
Q 1141 3584 1784 3584 
Q 2172 3584 2450 3431 
Q 2728 3278 2906 2969 
L 2906 3500 
L 3481 3500 
L 3481 434 
z
" transform="scale(0.015625)"/>
       <path id="DejaVuSans-20" transform="scale(0.015625)"/>
       <path id="DejaVuSans-45" d="M 628 4666 
L 3578 4666 
L 3578 4134 
L 1259 4134 
L 1259 2753 
L 3481 2753 
L 3481 2222 
L 1259 2222 
L 1259 531 
L 3634 531 
L 3634 0 
L 628 0 
L 628 4666 
z
" transform="scale(0.015625)"/>
       <path id="DejaVuSans-70" d="M 1159 525 
L 1159 -1331 
L 581 -1331 
L 581 3500 
L 1159 3500 
L 1159 2969 
Q 1341 3281 1617 3432 
Q 1894 3584 2278 3584 
Q 2916 3584 3314 3078 
Q 3713 2572 3713 1747 
Q 3713 922 3314 415 
Q 2916 -91 2278 -91 
Q 1894 -91 1617 61 
Q 1341 213 1159 525 
z
M 3116 1747 
Q 3116 2381 2855 2742 
Q 2594 3103 2138 3103 
Q 1681 3103 1420 2742 
Q 1159 2381 1159 1747 
Q 1159 1113 1420 752 
Q 1681 391 2138 391 
Q 2594 391 2855 752 
Q 3116 1113 3116 1747 
z
" transform="scale(0.015625)"/>
       <path id="DejaVuSans-6f" d="M 1959 3097 
Q 1497 3097 1228 2736 
Q 959 2375 959 1747 
Q 959 1119 1226 758 
Q 1494 397 1959 397 
Q 2419 397 2687 759 
Q 2956 1122 2956 1747 
Q 2956 2369 2687 2733 
Q 2419 3097 1959 3097 
z
M 1959 3584 
Q 2709 3584 3137 3096 
Q 3566 2609 3566 1747 
Q 3566 888 3137 398 
Q 2709 -91 1959 -91 
Q 1206 -91 779 398 
Q 353 888 353 1747 
Q 353 2609 779 3096 
Q 1206 3584 1959 3584 
z
" transform="scale(0.015625)"/>
       <path id="DejaVuSans-63" d="M 3122 3366 
L 3122 2828 
Q 2878 2963 2633 3030 
Q 2388 3097 2138 3097 
Q 1578 3097 1268 2742 
Q 959 2388 959 1747 
Q 959 1106 1268 751 
Q 1578 397 2138 397 
Q 2388 397 2633 464 
Q 2878 531 3122 666 
L 3122 134 
Q 2881 22 2623 -34 
Q 2366 -91 2075 -91 
Q 1284 -91 818 406 
Q 353 903 353 1747 
Q 353 2603 823 3093 
Q 1294 3584 2113 3584 
Q 2378 3584 2631 3529 
Q 2884 3475 3122 3366 
z
" transform="scale(0.015625)"/>
       <path id="DejaVuSans-68" d="M 3513 2113 
L 3513 0 
L 2938 0 
L 2938 2094 
Q 2938 2591 2744 2837 
Q 2550 3084 2163 3084 
Q 1697 3084 1428 2787 
Q 1159 2491 1159 1978 
L 1159 0 
L 581 0 
L 581 4863 
L 1159 4863 
L 1159 2956 
Q 1366 3272 1645 3428 
Q 1925 3584 2291 3584 
Q 2894 3584 3203 3211 
Q 3513 2838 3513 2113 
z
" transform="scale(0.015625)"/>
      </defs>
      <use xlink:href="#DejaVuSans-54"/>
      <use xlink:href="#DejaVuSans-72" x="46.333984"/>
      <use xlink:href="#DejaVuSans-61" x="87.447266"/>
      <use xlink:href="#DejaVuSans-69" x="148.726562"/>
      <use xlink:href="#DejaVuSans-6e" x="176.509766"/>
      <use xlink:href="#DejaVuSans-69" x="239.888672"/>
      <use xlink:href="#DejaVuSans-6e" x="267.671875"/>
      <use xlink:href="#DejaVuSans-67" x="331.050781"/>
      <use xlink:href="#DejaVuSans-20" x="394.527344"/>
      <use xlink:href="#DejaVuSans-45" x="426.314453"/>
      <use xlink:href="#DejaVuSans-70" x="489.498047"/>
      <use xlink:href="#DejaVuSans-6f" x="552.974609"/>
      <use xlink:href="#DejaVuSans-63" x="614.15625"/>
      <use xlink:href="#DejaVuSans-68" x="669.136719"/>
     </g>
    </g>
   </g>
   <g id="matplotlib.axis_2">
    <g id="ytick_1">
     <g id="line2d_6">
      <defs>
       <path id="m2ecb43e2ba" d="M 0 0 
L -9 0 
" style="stroke: #ffc1a8; stroke-width: 1.875"/>
      </defs>
      <g>
       <use xlink:href="#m2ecb43e2ba" x="88.357031" y="235.394864" style="fill: #ffc1a8; stroke: #ffc1a8; stroke-width: 1.875"/>
      </g>
     </g>
     <g id="text_7">
      <!-- 0.500 -->
      <g style="fill: #ffc1a8" transform="translate(28.620625 241.663575)scale(0.165 -0.165)">
       <defs>
        <path id="DejaVuSans-2e" d="M 684 794 
L 1344 794 
L 1344 0 
L 684 0 
L 684 794 
z
" transform="scale(0.015625)"/>
        <path id="DejaVuSans-35" d="M 691 4666 
L 3169 4666 
L 3169 4134 
L 1269 4134 
L 1269 2991 
Q 1406 3038 1543 3061 
Q 1681 3084 1819 3084 
Q 2600 3084 3056 2656 
Q 3513 2228 3513 1497 
Q 3513 744 3044 326 
Q 2575 -91 1722 -91 
Q 1428 -91 1123 -41 
Q 819 9 494 109 
L 494 744 
Q 775 591 1075 516 
Q 1375 441 1709 441 
Q 2250 441 2565 725 
Q 2881 1009 2881 1497 
Q 2881 1984 2565 2268 
Q 2250 2553 1709 2553 
Q 1456 2553 1204 2497 
Q 953 2441 691 2322 
L 691 4666 
z
" transform="scale(0.015625)"/>
       </defs>
       <use xlink:href="#DejaVuSans-30"/>
       <use xlink:href="#DejaVuSans-2e" x="63.623047"/>
       <use xlink:href="#DejaVuSans-35" x="95.410156"/>
       <use xlink:href="#DejaVuSans-30" x="159.033203"/>
       <use xlink:href="#DejaVuSans-30" x="222.65625"/>
      </g>
     </g>
    </g>
    <g id="ytick_2">
     <g id="line2d_7">
      <g>
       <use xlink:href="#m2ecb43e2ba" x="88.357031" y="196.068437" style="fill: #ffc1a8; stroke: #ffc1a8; stroke-width: 1.875"/>
      </g>
     </g>
     <g id="text_8">
      <!-- 0.600 -->
      <g style="fill: #ffc1a8" transform="translate(28.620625 202.337148)scale(0.165 -0.165)">
       <defs>
        <path id="DejaVuSans-36" d="M 2113 2584 
Q 1688 2584 1439 2293 
Q 1191 2003 1191 1497 
Q 1191 994 1439 701 
Q 1688 409 2113 409 
Q 2538 409 2786 701 
Q 3034 994 3034 1497 
Q 3034 2003 2786 2293 
Q 2538 2584 2113 2584 
z
M 3366 4563 
L 3366 3988 
Q 3128 4100 2886 4159 
Q 2644 4219 2406 4219 
Q 1781 4219 1451 3797 
Q 1122 3375 1075 2522 
Q 1259 2794 1537 2939 
Q 1816 3084 2150 3084 
Q 2853 3084 3261 2657 
Q 3669 2231 3669 1497 
Q 3669 778 3244 343 
Q 2819 -91 2113 -91 
Q 1303 -91 875 529 
Q 447 1150 447 2328 
Q 447 3434 972 4092 
Q 1497 4750 2381 4750 
Q 2619 4750 2861 4703 
Q 3103 4656 3366 4563 
z
" transform="scale(0.015625)"/>
       </defs>
       <use xlink:href="#DejaVuSans-30"/>
       <use xlink:href="#DejaVuSans-2e" x="63.623047"/>
       <use xlink:href="#DejaVuSans-36" x="95.410156"/>
       <use xlink:href="#DejaVuSans-30" x="159.033203"/>
       <use xlink:href="#DejaVuSans-30" x="222.65625"/>
      </g>
     </g>
    </g>
    <g id="ytick_3">
     <g id="line2d_8">
      <g>
       <use xlink:href="#m2ecb43e2ba" x="88.357031" y="156.742009" style="fill: #ffc1a8; stroke: #ffc1a8; stroke-width: 1.875"/>
      </g>
     </g>
     <g id="text_9">
      <!-- 0.700 -->
      <g style="fill: #ffc1a8" transform="translate(28.620625 163.01072)scale(0.165 -0.165)">
       <defs>
        <path id="DejaVuSans-37" d="M 525 4666 
L 3525 4666 
L 3525 4397 
L 1831 0 
L 1172 0 
L 2766 4134 
L 525 4134 
L 525 4666 
z
" transform="scale(0.015625)"/>
       </defs>
       <use xlink:href="#DejaVuSans-30"/>
       <use xlink:href="#DejaVuSans-2e" x="63.623047"/>
       <use xlink:href="#DejaVuSans-37" x="95.410156"/>
       <use xlink:href="#DejaVuSans-30" x="159.033203"/>
       <use xlink:href="#DejaVuSans-30" x="222.65625"/>
      </g>
     </g>
    </g>
    <g id="ytick_4">
     <g id="line2d_9">
      <g>
       <use xlink:href="#m2ecb43e2ba" x="88.357031" y="117.415581" style="fill: #ffc1a8; stroke: #ffc1a8; stroke-width: 1.875"/>
      </g>
     </g>
     <g id="text_10">
      <!-- 0.800 -->
      <g style="fill: #ffc1a8" transform="translate(28.620625 123.684292)scale(0.165 -0.165)">
       <defs>
        <path id="DejaVuSans-38" d="M 2034 2216 
Q 1584 2216 1326 1975 
Q 1069 1734 1069 1313 
Q 1069 891 1326 650 
Q 1584 409 2034 409 
Q 2484 409 2743 651 
Q 3003 894 3003 1313 
Q 3003 1734 2745 1975 
Q 2488 2216 2034 2216 
z
M 1403 2484 
Q 997 2584 770 2862 
Q 544 3141 544 3541 
Q 544 4100 942 4425 
Q 1341 4750 2034 4750 
Q 2731 4750 3128 4425 
Q 3525 4100 3525 3541 
Q 3525 3141 3298 2862 
Q 3072 2584 2669 2484 
Q 3125 2378 3379 2068 
Q 3634 1759 3634 1313 
Q 3634 634 3220 271 
Q 2806 -91 2034 -91 
Q 1263 -91 848 271 
Q 434 634 434 1313 
Q 434 1759 690 2068 
Q 947 2378 1403 2484 
z
M 1172 3481 
Q 1172 3119 1398 2916 
Q 1625 2713 2034 2713 
Q 2441 2713 2670 2916 
Q 2900 3119 2900 3481 
Q 2900 3844 2670 4047 
Q 2441 4250 2034 4250 
Q 1625 4250 1398 4047 
Q 1172 3844 1172 3481 
z
" transform="scale(0.015625)"/>
       </defs>
       <use xlink:href="#DejaVuSans-30"/>
       <use xlink:href="#DejaVuSans-2e" x="63.623047"/>
       <use xlink:href="#DejaVuSans-38" x="95.410156"/>
       <use xlink:href="#DejaVuSans-30" x="159.033203"/>
       <use xlink:href="#DejaVuSans-30" x="222.65625"/>
      </g>
     </g>
    </g>
    <g id="ytick_5">
     <g id="line2d_10">
      <g>
       <use xlink:href="#m2ecb43e2ba" x="88.357031" y="78.089154" style="fill: #ffc1a8; stroke: #ffc1a8; stroke-width: 1.875"/>
      </g>
     </g>
     <g id="text_11">
      <!-- 0.900 -->
      <g style="fill: #ffc1a8" transform="translate(28.620625 84.357865)scale(0.165 -0.165)">
       <defs>
        <path id="DejaVuSans-39" d="M 703 97 
L 703 672 
Q 941 559 1184 500 
Q 1428 441 1663 441 
Q 2288 441 2617 861 
Q 2947 1281 2994 2138 
Q 2813 1869 2534 1725 
Q 2256 1581 1919 1581 
Q 1219 1581 811 2004 
Q 403 2428 403 3163 
Q 403 3881 828 4315 
Q 1253 4750 1959 4750 
Q 2769 4750 3195 4129 
Q 3622 3509 3622 2328 
Q 3622 1225 3098 567 
Q 2575 -91 1691 -91 
Q 1453 -91 1209 -44 
Q 966 3 703 97 
z
M 1959 2075 
Q 2384 2075 2632 2365 
Q 2881 2656 2881 3163 
Q 2881 3666 2632 3958 
Q 2384 4250 1959 4250 
Q 1534 4250 1286 3958 
Q 1038 3666 1038 3163 
Q 1038 2656 1286 2365 
Q 1534 2075 1959 2075 
z
" transform="scale(0.015625)"/>
       </defs>
       <use xlink:href="#DejaVuSans-30"/>
       <use xlink:href="#DejaVuSans-2e" x="63.623047"/>
       <use xlink:href="#DejaVuSans-39" x="95.410156"/>
       <use xlink:href="#DejaVuSans-30" x="159.033203"/>
       <use xlink:href="#DejaVuSans-30" x="222.65625"/>
      </g>
     </g>
    </g>
    <g id="ytick_6">
     <g id="line2d_11">
      <g>
       <use xlink:href="#m2ecb43e2ba" x="88.357031" y="38.762726" style="fill: #ffc1a8; stroke: #ffc1a8; stroke-width: 1.875"/>
      </g>
     </g>
     <g id="text_12">
      <!-- 1.000 -->
      <g style="fill: #ffc1a8" transform="translate(28.620625 45.031437)scale(0.165 -0.165)">
       <use xlink:href="#DejaVuSans-31"/>
       <use xlink:href="#DejaVuSans-2e" x="63.623047"/>
       <use xlink:href="#DejaVuSans-30" x="95.410156"/>
       <use xlink:href="#DejaVuSans-30" x="159.033203"/>
       <use xlink:href="#DejaVuSans-30" x="222.65625"/>
      </g>
     </g>
    </g>
    <g id="text_13">
     <!-- Margin Ranking Loss -->
     <g style="fill: #ffc1a8" transform="translate(20.877187 228.19875)rotate(-90)scale(0.18 -0.18)">
      <defs>
       <path id="DejaVuSans-4d" d="M 628 4666 
L 1569 4666 
L 2759 1491 
L 3956 4666 
L 4897 4666 
L 4897 0 
L 4281 0 
L 4281 4097 
L 3078 897 
L 2444 897 
L 1241 4097 
L 1241 0 
L 628 0 
L 628 4666 
z
" transform="scale(0.015625)"/>
       <path id="DejaVuSans-52" d="M 2841 2188 
Q 3044 2119 3236 1894 
Q 3428 1669 3622 1275 
L 4263 0 
L 3584 0 
L 2988 1197 
Q 2756 1666 2539 1819 
Q 2322 1972 1947 1972 
L 1259 1972 
L 1259 0 
L 628 0 
L 628 4666 
L 2053 4666 
Q 2853 4666 3247 4331 
Q 3641 3997 3641 3322 
Q 3641 2881 3436 2590 
Q 3231 2300 2841 2188 
z
M 1259 4147 
L 1259 2491 
L 2053 2491 
Q 2509 2491 2742 2702 
Q 2975 2913 2975 3322 
Q 2975 3731 2742 3939 
Q 2509 4147 2053 4147 
L 1259 4147 
z
" transform="scale(0.015625)"/>
       <path id="DejaVuSans-6b" d="M 581 4863 
L 1159 4863 
L 1159 1991 
L 2875 3500 
L 3609 3500 
L 1753 1863 
L 3688 0 
L 2938 0 
L 1159 1709 
L 1159 0 
L 581 0 
L 581 4863 
z
" transform="scale(0.015625)"/>
       <path id="DejaVuSans-4c" d="M 628 4666 
L 1259 4666 
L 1259 531 
L 3531 531 
L 3531 0 
L 628 0 
L 628 4666 
z
" transform="scale(0.015625)"/>
       <path id="DejaVuSans-73" d="M 2834 3397 
L 2834 2853 
Q 2591 2978 2328 3040 
Q 2066 3103 1784 3103 
Q 1356 3103 1142 2972 
Q 928 2841 928 2578 
Q 928 2378 1081 2264 
Q 1234 2150 1697 2047 
L 1894 2003 
Q 2506 1872 2764 1633 
Q 3022 1394 3022 966 
Q 3022 478 2636 193 
Q 2250 -91 1575 -91 
Q 1294 -91 989 -36 
Q 684 19 347 128 
L 347 722 
Q 666 556 975 473 
Q 1284 391 1588 391 
Q 1994 391 2212 530 
Q 2431 669 2431 922 
Q 2431 1156 2273 1281 
Q 2116 1406 1581 1522 
L 1381 1569 
Q 847 1681 609 1914 
Q 372 2147 372 2553 
Q 372 3047 722 3315 
Q 1072 3584 1716 3584 
Q 2034 3584 2315 3537 
Q 2597 3491 2834 3397 
z
" transform="scale(0.015625)"/>
      </defs>
      <use xlink:href="#DejaVuSans-4d"/>
      <use xlink:href="#DejaVuSans-61" x="86.279297"/>
      <use xlink:href="#DejaVuSans-72" x="147.558594"/>
      <use xlink:href="#DejaVuSans-67" x="186.921875"/>
      <use xlink:href="#DejaVuSans-69" x="250.398438"/>
      <use xlink:href="#DejaVuSans-6e" x="278.181641"/>
      <use xlink:href="#DejaVuSans-20" x="341.560547"/>
      <use xlink:href="#DejaVuSans-52" x="373.347656"/>
      <use xlink:href="#DejaVuSans-61" x="440.580078"/>
      <use xlink:href="#DejaVuSans-6e" x="501.859375"/>
      <use xlink:href="#DejaVuSans-6b" x="565.238281"/>
      <use xlink:href="#DejaVuSans-69" x="623.148438"/>
      <use xlink:href="#DejaVuSans-6e" x="650.931641"/>
      <use xlink:href="#DejaVuSans-67" x="714.310547"/>
      <use xlink:href="#DejaVuSans-20" x="777.787109"/>
      <use xlink:href="#DejaVuSans-4c" x="809.574219"/>
      <use xlink:href="#DejaVuSans-6f" x="863.537109"/>
      <use xlink:href="#DejaVuSans-73" x="924.71875"/>
      <use xlink:href="#DejaVuSans-73" x="976.818359"/>
     </g>
    </g>
   </g>
   <g id="line2d_12">
    <path d="M 103.575213 38.887077 
L 104.338029 38.057264 
L 105.100845 36.760824 
L 105.863661 37.912028 
L 106.626478 38.587392 
L 107.389294 38.934075 
L 108.15211 39.484502 
L 108.914926 38.708204 
L 109.677742 41.200174 
L 110.440558 40.147068 
L 111.203374 39.862291 
L 111.966191 41.093356 
L 112.729007 40.720865 
L 113.491823 46.111847 
L 114.254639 43.166118 
L 115.017455 40.915162 
L 115.780271 45.356434 
L 116.543087 43.09493 
L 117.305903 39.175347 
L 118.06872 46.917118 
L 118.831536 49.985721 
L 119.594352 50.593155 
L 120.357168 51.731748 
L 121.119984 49.433747 
L 121.8828 44.220818 
L 122.645616 37.997491 
L 123.408432 57.005176 
L 124.171249 52.942092 
L 124.934065 75.514425 
L 125.696881 68.354984 
L 126.459697 46.399718 
L 127.222513 45.411167 
L 127.985329 55.920918 
L 128.748145 79.561992 
L 129.510962 62.20894 
L 130.273778 74.632012 
L 131.036594 67.753972 
L 131.79941 70.788376 
L 132.562226 82.483273 
L 133.325042 79.844332 
L 134.087858 48.273987 
L 134.850674 101.794182 
L 135.613491 55.195485 
L 136.376307 106.573136 
L 137.139123 135.577978 
L 137.901939 64.311636 
L 138.664755 117.566626 
L 139.427571 96.420429 
L 140.190387 110.301164 
L 140.953203 66.19207 
L 141.71602 73.426145 
L 142.478836 47.074613 
L 143.241652 107.938069 
L 144.004468 63.672346 
L 144.767284 78.289578 
L 145.5301 60.613916 
L 146.292916 99.326942 
L 147.055733 85.329052 
L 147.818549 80.402072 
L 148.581365 105.589859 
L 149.344181 45.032394 
L 150.106997 97.575594 
L 150.869813 88.811565 
L 151.632629 77.754012 
L 152.395445 147.714773 
L 153.158262 101.596416 
L 153.921078 86.2455 
L 154.683894 138.388761 
L 155.44671 66.903602 
L 156.209526 127.929406 
L 156.972342 131.278403 
L 157.735158 40.298539 
L 158.497975 62.67981 
L 159.260791 115.624755 
L 160.023607 102.916156 
L 160.786423 83.043451 
L 161.549239 119.448092 
L 162.312055 77.263077 
L 163.074871 123.216742 
L 163.837687 96.929601 
L 165.36332 76.7322 
L 166.126136 100.07326 
L 166.888952 116.175065 
L 167.651768 113.525365 
L 168.414584 100.332886 
L 169.1774 132.236013 
L 169.940216 120.770668 
L 170.703033 85.222257 
L 171.465849 133.619347 
L 172.228665 92.265083 
L 172.991481 157.347432 
L 173.754297 95.298948 
L 174.517113 115.929175 
L 175.279929 77.425027 
L 176.042746 109.881277 
L 176.805562 122.307138 
L 177.568378 129.243755 
L 178.331194 110.418296 
L 179.09401 112.046019 
L 179.856826 118.449883 
L 180.619642 110.255924 
L 181.382458 116.247379 
L 182.145275 153.5214 
L 182.908091 90.555318 
L 183.670907 128.931389 
L 184.433723 103.280771 
L 185.196539 114.753336 
L 185.959355 132.998247 
L 186.722171 165.797922 
L 187.484988 137.195974 
L 188.247804 155.24858 
L 189.01062 103.146434 
L 189.773436 107.893978 
L 190.536252 117.470427 
L 191.299068 140.916501 
L 192.061884 154.658024 
L 192.8247 154.438739 
L 193.587517 142.815453 
L 194.350333 108.773203 
L 195.113149 55.745608 
L 195.875965 174.321992 
L 196.638781 143.918393 
L 197.401597 147.16315 
L 198.164413 165.274311 
L 198.927229 153.342456 
L 200.452862 174.598143 
L 201.215678 128.659762 
L 201.978494 153.653721 
L 202.74131 152.789685 
L 203.504126 146.507242 
L 204.266942 136.270876 
L 205.029759 131.659731 
L 205.792575 134.654123 
L 206.555391 148.543554 
L 207.318207 151.383403 
L 208.081023 159.423405 
L 208.843839 147.706662 
L 209.606655 173.348841 
L 210.369471 129.295512 
L 211.132288 142.226138 
L 211.895104 125.568046 
L 212.65792 175.09093 
L 213.420736 164.397407 
L 214.183552 182.586389 
L 214.946368 162.392035 
L 215.709184 215.467238 
L 216.472 111.773361 
L 217.234817 117.031881 
L 217.997633 206.053677 
L 218.760449 127.859999 
L 219.523265 146.189531 
L 220.286081 168.754645 
L 221.048897 186.302322 
L 221.811713 212.892477 
L 222.57453 188.018931 
L 223.337346 167.850456 
L 224.100162 143.964125 
L 224.862978 162.647301 
L 225.625794 160.875701 
L 226.38861 174.616778 
L 227.151426 165.511106 
L 227.914242 178.063311 
L 229.439875 179.134349 
L 230.202691 168.995284 
L 230.965507 185.746527 
L 231.728323 145.950275 
L 232.491139 112.365019 
L 233.253955 201.774636 
L 234.016772 133.822153 
L 234.779588 139.092347 
L 235.542404 158.281156 
L 236.30522 189.917391 
L 237.068036 133.58932 
L 237.830852 162.863351 
L 238.593668 169.378885 
L 239.356484 205.392095 
L 240.882117 131.964222 
L 241.644933 188.672004 
L 242.407749 185.196663 
L 243.170565 167.952445 
L 243.933381 146.663777 
L 244.696197 193.827199 
L 245.459013 138.132487 
L 246.22183 168.235675 
L 246.984646 173.734412 
L 247.747462 194.021168 
L 248.510278 146.101043 
L 249.273094 194.41785 
L 250.03591 156.00036 
L 250.798726 168.945332 
L 251.561543 157.868254 
L 252.324359 140.464547 
L 253.087175 173.329386 
L 253.849991 170.054882 
L 254.612807 194.813148 
L 255.375623 201.231171 
L 256.138439 169.245392 
L 256.901255 186.505855 
L 257.664072 138.376079 
L 258.426888 133.380279 
L 259.189704 197.841856 
L 259.95252 182.0012 
L 261.478152 141.934376 
L 262.240968 170.216973 
L 263.003784 147.561051 
L 263.766601 168.5588 
L 264.529417 150.2769 
L 266.055049 219.351004 
L 266.817865 124.499915 
L 267.580681 158.231884 
L 268.343497 153.459869 
L 269.106314 161.356861 
L 269.86913 197.610078 
L 270.631946 200.594952 
L 271.394762 150.060568 
L 272.157578 154.634864 
L 272.920394 190.614297 
L 273.68321 159.836612 
L 274.446026 156.354966 
L 275.208843 163.439305 
L 275.971659 152.429547 
L 276.734475 138.536294 
L 277.497291 181.387719 
L 278.260107 169.505815 
L 279.022923 153.961868 
L 279.785739 172.472242 
L 280.548556 224.938393 
L 281.311372 116.5638 
L 282.074188 191.44132 
L 282.837004 193.59678 
L 283.59982 185.763147 
L 284.362636 149.563937 
L 285.125452 154.757528 
L 286.651085 173.361546 
L 287.413901 125.70393 
L 288.176717 135.490335 
L 288.939533 161.554933 
L 289.702349 131.760173 
L 290.465165 183.238899 
L 291.227981 118.021276 
L 291.990797 185.51067 
L 292.753614 189.317763 
L 293.51643 144.514505 
L 294.279246 189.395889 
L 295.042062 145.05647 
L 295.804878 219.172482 
L 296.567694 186.770427 
L 297.33051 190.908638 
L 298.093327 185.300527 
L 298.856143 204.810141 
L 299.618959 197.96616 
L 300.381775 187.179813 
L 301.144591 158.785663 
L 301.907407 184.250492 
L 302.670223 146.1141 
L 303.433039 234.433551 
L 304.195856 148.211802 
L 304.958672 155.635886 
L 305.721488 135.135705 
L 306.484304 187.532262 
L 307.24712 103.372025 
L 308.009936 173.069971 
L 308.772752 191.172623 
L 309.535569 205.337057 
L 310.298385 137.074529 
L 311.061201 177.879679 
L 311.824017 165.030133 
L 312.586833 175.778202 
L 313.349649 181.247499 
L 314.112465 179.351219 
L 314.875281 158.348336 
L 315.638098 178.573467 
L 316.400914 174.687826 
L 317.16373 151.857109 
L 317.926546 149.634563 
L 318.689362 128.947281 
L 319.452178 187.423452 
L 320.214994 202.034027 
L 320.97781 158.221781 
L 321.740627 191.05657 
L 322.503443 119.562129 
L 323.266259 191.593355 
L 324.029075 191.693023 
L 324.791891 193.539773 
L 325.554707 128.950329 
L 326.317523 213.242723 
L 327.08034 161.584538 
L 327.843156 146.298599 
L 328.605972 127.333435 
L 329.368788 160.41702 
L 330.131604 156.678678 
L 330.89442 193.011755 
L 331.657236 221.482016 
L 332.420052 207.510215 
L 333.182869 179.261419 
L 333.945685 197.92889 
L 334.708501 148.746688 
L 335.471317 197.269465 
L 336.234133 184.159848 
L 336.996949 126.056098 
L 337.759765 174.034519 
L 338.522581 188.380405 
L 339.285398 199.916704 
L 340.048214 191.915355 
L 340.81103 180.989326 
L 341.573846 134.084943 
L 342.336662 181.740122 
L 343.099478 156.045155 
L 343.862294 157.56817 
L 344.625111 102.018272 
L 345.387927 170.993716 
L 346.150743 131.974301 
L 346.913559 134.929992 
L 347.676375 182.720187 
L 348.439191 176.658998 
L 349.202007 191.994818 
L 349.964823 160.437835 
L 350.72764 157.731221 
L 351.490456 166.612663 
L 352.253272 198.612693 
L 353.016088 153.785948 
L 353.778904 184.968049 
L 354.54172 170.419708 
L 355.304536 160.697788 
L 356.067353 140.512271 
L 356.830169 182.735048 
L 357.592985 165.526952 
L 358.355801 167.035035 
L 359.118617 169.875563 
L 359.881433 193.444816 
L 360.644249 187.029302 
L 361.407065 140.796041 
L 362.169882 157.91197 
L 362.932698 164.274392 
L 363.695514 204.102453 
L 364.45833 171.278634 
L 365.221146 175.755863 
L 365.983962 167.59887 
L 366.746778 174.435748 
L 367.509594 150.351464 
L 368.272411 196.504348 
L 369.035227 179.983664 
L 369.798043 113.153811 
L 370.560859 170.466988 
L 371.323675 198.409043 
L 372.086491 175.250137 
L 372.849307 179.443926 
L 374.37494 153.518751 
L 375.137756 134.535444 
L 375.900572 195.507734 
L 376.663388 181.85369 
L 377.426204 185.136773 
L 378.18902 145.14266 
L 378.951836 199.731174 
L 379.714653 199.641702 
L 380.477469 170.14487 
L 381.240285 164.259999 
L 382.003101 137.681822 
L 382.765917 173.464402 
L 383.528733 126.24709 
L 384.291549 169.713497 
L 385.054365 186.645911 
L 385.817182 184.025535 
L 386.579998 172.158562 
L 387.342814 185.336766 
L 388.10563 177.410731 
L 388.868446 202.525478 
L 389.631262 191.32093 
L 390.394078 186.854976 
L 391.156895 220.527102 
L 391.919711 149.7659 
L 393.445343 195.154018 
L 394.208159 215.013292 
L 394.970975 194.773347 
L 395.733791 197.208216 
L 396.496607 170.9872 
L 397.259424 169.164922 
L 398.02224 165.634004 
L 398.785056 115.530525 
L 399.547872 191.984762 
L 400.310688 119.577225 
L 401.073504 157.602744 
L 401.83632 180.541334 
L 402.599137 152.225381 
L 403.361953 180.964268 
L 404.124769 168.072975 
L 404.887585 132.150081 
L 406.413217 189.883004 
L 407.176033 171.806113 
L 407.938849 229.062681 
L 407.938849 229.062681 
" clip-path="url(#p11037bee81)" style="fill: none; stroke: #ffc1a8; stroke-width: 2.25; stroke-linecap: round"/>
   </g>
   <g id="patch_3">
    <path d="M 88.357031 244.317188 
L 88.357031 26.877188 
" style="fill: none; stroke: #ffc1a8; stroke-width: 1.875; stroke-linejoin: miter; stroke-linecap: square"/>
   </g>
   <g id="patch_4">
    <path d="M 423.157031 244.317188 
L 423.157031 26.877188 
" style="fill: none; stroke: #ffc1a8; stroke-width: 1.875; stroke-linejoin: miter; stroke-linecap: square"/>
   </g>
   <g id="patch_5">
    <path d="M 88.357031 244.317187 
L 423.157031 244.317187 
" style="fill: none; stroke: #ffc1a8; stroke-width: 1.875; stroke-linejoin: miter; stroke-linecap: square"/>
   </g>
   <g id="patch_6">
    <path d="M 88.357031 26.877187 
L 423.157031 26.877187 
" style="fill: none; stroke: #ffc1a8; stroke-width: 1.875; stroke-linejoin: miter; stroke-linecap: square"/>
   </g>
   <g id="text_14">
    <!-- Margin = 1 -->
    <g style="fill: #ffc1a8" transform="translate(206.027813 20.877187)scale(0.18 -0.18)">
     <defs>
      <path id="DejaVuSans-3d" d="M 678 2906 
L 4684 2906 
L 4684 2381 
L 678 2381 
L 678 2906 
z
M 678 1631 
L 4684 1631 
L 4684 1100 
L 678 1100 
L 678 1631 
z
" transform="scale(0.015625)"/>
     </defs>
     <use xlink:href="#DejaVuSans-4d"/>
     <use xlink:href="#DejaVuSans-61" x="86.279297"/>
     <use xlink:href="#DejaVuSans-72" x="147.558594"/>
     <use xlink:href="#DejaVuSans-67" x="186.921875"/>
     <use xlink:href="#DejaVuSans-69" x="250.398438"/>
     <use xlink:href="#DejaVuSans-6e" x="278.181641"/>
     <use xlink:href="#DejaVuSans-20" x="341.560547"/>
     <use xlink:href="#DejaVuSans-3d" x="373.347656"/>
     <use xlink:href="#DejaVuSans-20" x="457.136719"/>
     <use xlink:href="#DejaVuSans-31" x="488.923828"/>
    </g>
   </g>
  </g>
 </g>
 <defs>
  <clipPath id="p11037bee81">
   <rect x="88.357031" y="26.877187" width="334.8" height="217.44"/>
  </clipPath>
 </defs>
</svg>
