<?xml version="1.0" encoding="utf-8" standalone="no"?>
<!DOCTYPE svg PUBLIC "-//W3C//DTD SVG 1.1//EN"
  "http://www.w3.org/Graphics/SVG/1.1/DTD/svg11.dtd">
<svg xmlns:xlink="http://www.w3.org/1999/xlink" width="433.430025pt" height="311.215387pt" viewBox="0 0 433.430025 311.215387" xmlns="http://www.w3.org/2000/svg" version="1.1">
 <metadata>
  <rdf:RDF xmlns:dc="http://purl.org/dc/elements/1.1/" xmlns:cc="http://creativecommons.org/ns#" xmlns:rdf="http://www.w3.org/1999/02/22-rdf-syntax-ns#">
   <cc:Work>
    <dc:type rdf:resource="http://purl.org/dc/dcmitype/StillImage"/>
    <dc:date>2022-06-15T12:36:05.789608</dc:date>
    <dc:format>image/svg+xml</dc:format>
    <dc:creator>
     <cc:Agent>
      <dc:title>Matplotlib v3.5.1, https://matplotlib.org/</dc:title>
     </cc:Agent>
    </dc:creator>
   </cc:Work>
  </rdf:RDF>
 </metadata>
 <defs>
  <style type="text/css">*{stroke-linejoin: round; stroke-linecap: butt}</style>
 </defs>
 <g id="figure_1">
  <g id="patch_1">
   <path d="M 0 311.215387 
L 433.430025 311.215387 
L 433.430025 0 
L 0 0 
L 0 311.215387 
z
" style="fill: none"/>
  </g>
  <g id="axes_1">
   <g id="patch_2">
    <path d="M 88.357031 244.317187 
L 423.157031 244.317187 
L 423.157031 26.877187 
L 88.357031 26.877187 
L 88.357031 244.317187 
z
" style="fill: none"/>
   </g>
   <g id="matplotlib.axis_1">
    <g id="xtick_1">
     <g id="line2d_1">
      <defs>
       <path id="mea6c3ca3c2" d="M 0 0 
L 0 9 
" style="stroke: #ffc1a8; stroke-width: 1.875"/>
      </defs>
      <g>
       <use xlink:href="#mea6c3ca3c2" x="103.575213" y="244.317187" style="fill: #ffc1a8; stroke: #ffc1a8; stroke-width: 1.875"/>
      </g>
     </g>
     <g id="text_1">
      <!-- 0 -->
      <g style="fill: #ffc1a8" transform="translate(100.199915 272.189081)rotate(-20)scale(0.165 -0.165)">
       <defs>
        <path id="DejaVuSans-30" d="M 2034 4250 
Q 1547 4250 1301 3770 
Q 1056 3291 1056 2328 
Q 1056 1369 1301 889 
Q 1547 409 2034 409 
Q 2525 409 2770 889 
Q 3016 1369 3016 2328 
Q 3016 3291 2770 3770 
Q 2525 4250 2034 4250 
z
M 2034 4750 
Q 2819 4750 3233 4129 
Q 3647 3509 3647 2328 
Q 3647 1150 3233 529 
Q 2819 -91 2034 -91 
Q 1250 -91 836 529 
Q 422 1150 422 2328 
Q 422 3509 836 4129 
Q 1250 4750 2034 4750 
z
" transform="scale(0.015625)"/>
       </defs>
       <use xlink:href="#DejaVuSans-30"/>
      </g>
     </g>
    </g>
    <g id="xtick_2">
     <g id="line2d_2">
      <g>
       <use xlink:href="#mea6c3ca3c2" x="179.856826" y="244.317187" style="fill: #ffc1a8; stroke: #ffc1a8; stroke-width: 1.875"/>
      </g>
     </g>
     <g id="text_2">
      <!-- 100 -->
      <g style="fill: #ffc1a8" transform="translate(166.616517 279.370221)rotate(-20)scale(0.165 -0.165)">
       <defs>
        <path id="DejaVuSans-31" d="M 794 531 
L 1825 531 
L 1825 4091 
L 703 3866 
L 703 4441 
L 1819 4666 
L 2450 4666 
L 2450 531 
L 3481 531 
L 3481 0 
L 794 0 
L 794 531 
z
" transform="scale(0.015625)"/>
       </defs>
       <use xlink:href="#DejaVuSans-31"/>
       <use xlink:href="#DejaVuSans-30" x="63.623047"/>
       <use xlink:href="#DejaVuSans-30" x="127.246094"/>
      </g>
     </g>
    </g>
    <g id="xtick_3">
     <g id="line2d_3">
      <g>
       <use xlink:href="#mea6c3ca3c2" x="256.138439" y="244.317187" style="fill: #ffc1a8; stroke: #ffc1a8; stroke-width: 1.875"/>
      </g>
     </g>
     <g id="text_3">
      <!-- 200 -->
      <g style="fill: #ffc1a8" transform="translate(242.89813 279.370221)rotate(-20)scale(0.165 -0.165)">
       <defs>
        <path id="DejaVuSans-32" d="M 1228 531 
L 3431 531 
L 3431 0 
L 469 0 
L 469 531 
Q 828 903 1448 1529 
Q 2069 2156 2228 2338 
Q 2531 2678 2651 2914 
Q 2772 3150 2772 3378 
Q 2772 3750 2511 3984 
Q 2250 4219 1831 4219 
Q 1534 4219 1204 4116 
Q 875 4013 500 3803 
L 500 4441 
Q 881 4594 1212 4672 
Q 1544 4750 1819 4750 
Q 2544 4750 2975 4387 
Q 3406 4025 3406 3419 
Q 3406 3131 3298 2873 
Q 3191 2616 2906 2266 
Q 2828 2175 2409 1742 
Q 1991 1309 1228 531 
z
" transform="scale(0.015625)"/>
       </defs>
       <use xlink:href="#DejaVuSans-32"/>
       <use xlink:href="#DejaVuSans-30" x="63.623047"/>
       <use xlink:href="#DejaVuSans-30" x="127.246094"/>
      </g>
     </g>
    </g>
    <g id="xtick_4">
     <g id="line2d_4">
      <g>
       <use xlink:href="#mea6c3ca3c2" x="332.420052" y="244.317187" style="fill: #ffc1a8; stroke: #ffc1a8; stroke-width: 1.875"/>
      </g>
     </g>
     <g id="text_4">
      <!-- 300 -->
      <g style="fill: #ffc1a8" transform="translate(319.179744 279.370221)rotate(-20)scale(0.165 -0.165)">
       <defs>
        <path id="DejaVuSans-33" d="M 2597 2516 
Q 3050 2419 3304 2112 
Q 3559 1806 3559 1356 
Q 3559 666 3084 287 
Q 2609 -91 1734 -91 
Q 1441 -91 1130 -33 
Q 819 25 488 141 
L 488 750 
Q 750 597 1062 519 
Q 1375 441 1716 441 
Q 2309 441 2620 675 
Q 2931 909 2931 1356 
Q 2931 1769 2642 2001 
Q 2353 2234 1838 2234 
L 1294 2234 
L 1294 2753 
L 1863 2753 
Q 2328 2753 2575 2939 
Q 2822 3125 2822 3475 
Q 2822 3834 2567 4026 
Q 2313 4219 1838 4219 
Q 1578 4219 1281 4162 
Q 984 4106 628 3988 
L 628 4550 
Q 988 4650 1302 4700 
Q 1616 4750 1894 4750 
Q 2613 4750 3031 4423 
Q 3450 4097 3450 3541 
Q 3450 3153 3228 2886 
Q 3006 2619 2597 2516 
z
" transform="scale(0.015625)"/>
       </defs>
       <use xlink:href="#DejaVuSans-33"/>
       <use xlink:href="#DejaVuSans-30" x="63.623047"/>
       <use xlink:href="#DejaVuSans-30" x="127.246094"/>
      </g>
     </g>
    </g>
    <g id="xtick_5">
     <g id="line2d_5">
      <g>
       <use xlink:href="#mea6c3ca3c2" x="408.701666" y="244.317187" style="fill: #ffc1a8; stroke: #ffc1a8; stroke-width: 1.875"/>
      </g>
     </g>
     <g id="text_5">
      <!-- 400 -->
      <g style="fill: #ffc1a8" transform="translate(395.461357 279.370221)rotate(-20)scale(0.165 -0.165)">
       <defs>
        <path id="DejaVuSans-34" d="M 2419 4116 
L 825 1625 
L 2419 1625 
L 2419 4116 
z
M 2253 4666 
L 3047 4666 
L 3047 1625 
L 3713 1625 
L 3713 1100 
L 3047 1100 
L 3047 0 
L 2419 0 
L 2419 1100 
L 313 1100 
L 313 1709 
L 2253 4666 
z
" transform="scale(0.015625)"/>
       </defs>
       <use xlink:href="#DejaVuSans-34"/>
       <use xlink:href="#DejaVuSans-30" x="63.623047"/>
       <use xlink:href="#DejaVuSans-30" x="127.246094"/>
      </g>
     </g>
    </g>
    <g id="text_6">
     <!-- Training Epoch -->
     <g style="fill: #ffc1a8" transform="translate(189.830625 300.271949)scale(0.18 -0.18)">
      <defs>
       <path id="DejaVuSans-54" d="M -19 4666 
L 3928 4666 
L 3928 4134 
L 2272 4134 
L 2272 0 
L 1638 0 
L 1638 4134 
L -19 4134 
L -19 4666 
z
" transform="scale(0.015625)"/>
       <path id="DejaVuSans-72" d="M 2631 2963 
Q 2534 3019 2420 3045 
Q 2306 3072 2169 3072 
Q 1681 3072 1420 2755 
Q 1159 2438 1159 1844 
L 1159 0 
L 581 0 
L 581 3500 
L 1159 3500 
L 1159 2956 
Q 1341 3275 1631 3429 
Q 1922 3584 2338 3584 
Q 2397 3584 2469 3576 
Q 2541 3569 2628 3553 
L 2631 2963 
z
" transform="scale(0.015625)"/>
       <path id="DejaVuSans-61" d="M 2194 1759 
Q 1497 1759 1228 1600 
Q 959 1441 959 1056 
Q 959 750 1161 570 
Q 1363 391 1709 391 
Q 2188 391 2477 730 
Q 2766 1069 2766 1631 
L 2766 1759 
L 2194 1759 
z
M 3341 1997 
L 3341 0 
L 2766 0 
L 2766 531 
Q 2569 213 2275 61 
Q 1981 -91 1556 -91 
Q 1019 -91 701 211 
Q 384 513 384 1019 
Q 384 1609 779 1909 
Q 1175 2209 1959 2209 
L 2766 2209 
L 2766 2266 
Q 2766 2663 2505 2880 
Q 2244 3097 1772 3097 
Q 1472 3097 1187 3025 
Q 903 2953 641 2809 
L 641 3341 
Q 956 3463 1253 3523 
Q 1550 3584 1831 3584 
Q 2591 3584 2966 3190 
Q 3341 2797 3341 1997 
z
" transform="scale(0.015625)"/>
       <path id="DejaVuSans-69" d="M 603 3500 
L 1178 3500 
L 1178 0 
L 603 0 
L 603 3500 
z
M 603 4863 
L 1178 4863 
L 1178 4134 
L 603 4134 
L 603 4863 
z
" transform="scale(0.015625)"/>
       <path id="DejaVuSans-6e" d="M 3513 2113 
L 3513 0 
L 2938 0 
L 2938 2094 
Q 2938 2591 2744 2837 
Q 2550 3084 2163 3084 
Q 1697 3084 1428 2787 
Q 1159 2491 1159 1978 
L 1159 0 
L 581 0 
L 581 3500 
L 1159 3500 
L 1159 2956 
Q 1366 3272 1645 3428 
Q 1925 3584 2291 3584 
Q 2894 3584 3203 3211 
Q 3513 2838 3513 2113 
z
" transform="scale(0.015625)"/>
       <path id="DejaVuSans-67" d="M 2906 1791 
Q 2906 2416 2648 2759 
Q 2391 3103 1925 3103 
Q 1463 3103 1205 2759 
Q 947 2416 947 1791 
Q 947 1169 1205 825 
Q 1463 481 1925 481 
Q 2391 481 2648 825 
Q 2906 1169 2906 1791 
z
M 3481 434 
Q 3481 -459 3084 -895 
Q 2688 -1331 1869 -1331 
Q 1566 -1331 1297 -1286 
Q 1028 -1241 775 -1147 
L 775 -588 
Q 1028 -725 1275 -790 
Q 1522 -856 1778 -856 
Q 2344 -856 2625 -561 
Q 2906 -266 2906 331 
L 2906 616 
Q 2728 306 2450 153 
Q 2172 0 1784 0 
Q 1141 0 747 490 
Q 353 981 353 1791 
Q 353 2603 747 3093 
Q 1141 3584 1784 3584 
Q 2172 3584 2450 3431 
Q 2728 3278 2906 2969 
L 2906 3500 
L 3481 3500 
L 3481 434 
z
" transform="scale(0.015625)"/>
       <path id="DejaVuSans-20" transform="scale(0.015625)"/>
       <path id="DejaVuSans-45" d="M 628 4666 
L 3578 4666 
L 3578 4134 
L 1259 4134 
L 1259 2753 
L 3481 2753 
L 3481 2222 
L 1259 2222 
L 1259 531 
L 3634 531 
L 3634 0 
L 628 0 
L 628 4666 
z
" transform="scale(0.015625)"/>
       <path id="DejaVuSans-70" d="M 1159 525 
L 1159 -1331 
L 581 -1331 
L 581 3500 
L 1159 3500 
L 1159 2969 
Q 1341 3281 1617 3432 
Q 1894 3584 2278 3584 
Q 2916 3584 3314 3078 
Q 3713 2572 3713 1747 
Q 3713 922 3314 415 
Q 2916 -91 2278 -91 
Q 1894 -91 1617 61 
Q 1341 213 1159 525 
z
M 3116 1747 
Q 3116 2381 2855 2742 
Q 2594 3103 2138 3103 
Q 1681 3103 1420 2742 
Q 1159 2381 1159 1747 
Q 1159 1113 1420 752 
Q 1681 391 2138 391 
Q 2594 391 2855 752 
Q 3116 1113 3116 1747 
z
" transform="scale(0.015625)"/>
       <path id="DejaVuSans-6f" d="M 1959 3097 
Q 1497 3097 1228 2736 
Q 959 2375 959 1747 
Q 959 1119 1226 758 
Q 1494 397 1959 397 
Q 2419 397 2687 759 
Q 2956 1122 2956 1747 
Q 2956 2369 2687 2733 
Q 2419 3097 1959 3097 
z
M 1959 3584 
Q 2709 3584 3137 3096 
Q 3566 2609 3566 1747 
Q 3566 888 3137 398 
Q 2709 -91 1959 -91 
Q 1206 -91 779 398 
Q 353 888 353 1747 
Q 353 2609 779 3096 
Q 1206 3584 1959 3584 
z
" transform="scale(0.015625)"/>
       <path id="DejaVuSans-63" d="M 3122 3366 
L 3122 2828 
Q 2878 2963 2633 3030 
Q 2388 3097 2138 3097 
Q 1578 3097 1268 2742 
Q 959 2388 959 1747 
Q 959 1106 1268 751 
Q 1578 397 2138 397 
Q 2388 397 2633 464 
Q 2878 531 3122 666 
L 3122 134 
Q 2881 22 2623 -34 
Q 2366 -91 2075 -91 
Q 1284 -91 818 406 
Q 353 903 353 1747 
Q 353 2603 823 3093 
Q 1294 3584 2113 3584 
Q 2378 3584 2631 3529 
Q 2884 3475 3122 3366 
z
" transform="scale(0.015625)"/>
       <path id="DejaVuSans-68" d="M 3513 2113 
L 3513 0 
L 2938 0 
L 2938 2094 
Q 2938 2591 2744 2837 
Q 2550 3084 2163 3084 
Q 1697 3084 1428 2787 
Q 1159 2491 1159 1978 
L 1159 0 
L 581 0 
L 581 4863 
L 1159 4863 
L 1159 2956 
Q 1366 3272 1645 3428 
Q 1925 3584 2291 3584 
Q 2894 3584 3203 3211 
Q 3513 2838 3513 2113 
z
" transform="scale(0.015625)"/>
      </defs>
      <use xlink:href="#DejaVuSans-54"/>
      <use xlink:href="#DejaVuSans-72" x="46.333984"/>
      <use xlink:href="#DejaVuSans-61" x="87.447266"/>
      <use xlink:href="#DejaVuSans-69" x="148.726562"/>
      <use xlink:href="#DejaVuSans-6e" x="176.509766"/>
      <use xlink:href="#DejaVuSans-69" x="239.888672"/>
      <use xlink:href="#DejaVuSans-6e" x="267.671875"/>
      <use xlink:href="#DejaVuSans-67" x="331.050781"/>
      <use xlink:href="#DejaVuSans-20" x="394.527344"/>
      <use xlink:href="#DejaVuSans-45" x="426.314453"/>
      <use xlink:href="#DejaVuSans-70" x="489.498047"/>
      <use xlink:href="#DejaVuSans-6f" x="552.974609"/>
      <use xlink:href="#DejaVuSans-63" x="614.15625"/>
      <use xlink:href="#DejaVuSans-68" x="669.136719"/>
     </g>
    </g>
   </g>
   <g id="matplotlib.axis_2">
    <g id="ytick_1">
     <g id="line2d_6">
      <defs>
       <path id="m86ff400f2b" d="M 0 0 
L -9 0 
" style="stroke: #ffc1a8; stroke-width: 1.875"/>
      </defs>
      <g>
       <use xlink:href="#m86ff400f2b" x="88.357031" y="234.489881" style="fill: #ffc1a8; stroke: #ffc1a8; stroke-width: 1.875"/>
      </g>
     </g>
     <g id="text_7">
      <!-- 0.000 -->
      <g style="fill: #ffc1a8" transform="translate(28.620625 240.758592)scale(0.165 -0.165)">
       <defs>
        <path id="DejaVuSans-2e" d="M 684 794 
L 1344 794 
L 1344 0 
L 684 0 
L 684 794 
z
" transform="scale(0.015625)"/>
       </defs>
       <use xlink:href="#DejaVuSans-30"/>
       <use xlink:href="#DejaVuSans-2e" x="63.623047"/>
       <use xlink:href="#DejaVuSans-30" x="95.410156"/>
       <use xlink:href="#DejaVuSans-30" x="159.033203"/>
       <use xlink:href="#DejaVuSans-30" x="222.65625"/>
      </g>
     </g>
    </g>
    <g id="ytick_2">
     <g id="line2d_7">
      <g>
       <use xlink:href="#m86ff400f2b" x="88.357031" y="183.177279" style="fill: #ffc1a8; stroke: #ffc1a8; stroke-width: 1.875"/>
      </g>
     </g>
     <g id="text_8">
      <!-- 0.001 -->
      <g style="fill: #ffc1a8" transform="translate(28.620625 189.44599)scale(0.165 -0.165)">
       <use xlink:href="#DejaVuSans-30"/>
       <use xlink:href="#DejaVuSans-2e" x="63.623047"/>
       <use xlink:href="#DejaVuSans-30" x="95.410156"/>
       <use xlink:href="#DejaVuSans-30" x="159.033203"/>
       <use xlink:href="#DejaVuSans-31" x="222.65625"/>
      </g>
     </g>
    </g>
    <g id="ytick_3">
     <g id="line2d_8">
      <g>
       <use xlink:href="#m86ff400f2b" x="88.357031" y="131.864676" style="fill: #ffc1a8; stroke: #ffc1a8; stroke-width: 1.875"/>
      </g>
     </g>
     <g id="text_9">
      <!-- 0.002 -->
      <g style="fill: #ffc1a8" transform="translate(28.620625 138.133387)scale(0.165 -0.165)">
       <use xlink:href="#DejaVuSans-30"/>
       <use xlink:href="#DejaVuSans-2e" x="63.623047"/>
       <use xlink:href="#DejaVuSans-30" x="95.410156"/>
       <use xlink:href="#DejaVuSans-30" x="159.033203"/>
       <use xlink:href="#DejaVuSans-32" x="222.65625"/>
      </g>
     </g>
    </g>
    <g id="ytick_4">
     <g id="line2d_9">
      <g>
       <use xlink:href="#m86ff400f2b" x="88.357031" y="80.552074" style="fill: #ffc1a8; stroke: #ffc1a8; stroke-width: 1.875"/>
      </g>
     </g>
     <g id="text_10">
      <!-- 0.003 -->
      <g style="fill: #ffc1a8" transform="translate(28.620625 86.820785)scale(0.165 -0.165)">
       <use xlink:href="#DejaVuSans-30"/>
       <use xlink:href="#DejaVuSans-2e" x="63.623047"/>
       <use xlink:href="#DejaVuSans-30" x="95.410156"/>
       <use xlink:href="#DejaVuSans-30" x="159.033203"/>
       <use xlink:href="#DejaVuSans-33" x="222.65625"/>
      </g>
     </g>
    </g>
    <g id="ytick_5">
     <g id="line2d_10">
      <g>
       <use xlink:href="#m86ff400f2b" x="88.357031" y="29.239472" style="fill: #ffc1a8; stroke: #ffc1a8; stroke-width: 1.875"/>
      </g>
     </g>
     <g id="text_11">
      <!-- 0.004 -->
      <g style="fill: #ffc1a8" transform="translate(28.620625 35.508183)scale(0.165 -0.165)">
       <use xlink:href="#DejaVuSans-30"/>
       <use xlink:href="#DejaVuSans-2e" x="63.623047"/>
       <use xlink:href="#DejaVuSans-30" x="95.410156"/>
       <use xlink:href="#DejaVuSans-30" x="159.033203"/>
       <use xlink:href="#DejaVuSans-34" x="222.65625"/>
      </g>
     </g>
    </g>
    <g id="text_12">
     <!-- Margin Ranking Loss -->
     <g style="fill: #ffc1a8" transform="translate(20.877187 228.19875)rotate(-90)scale(0.18 -0.18)">
      <defs>
       <path id="DejaVuSans-4d" d="M 628 4666 
L 1569 4666 
L 2759 1491 
L 3956 4666 
L 4897 4666 
L 4897 0 
L 4281 0 
L 4281 4097 
L 3078 897 
L 2444 897 
L 1241 4097 
L 1241 0 
L 628 0 
L 628 4666 
z
" transform="scale(0.015625)"/>
       <path id="DejaVuSans-52" d="M 2841 2188 
Q 3044 2119 3236 1894 
Q 3428 1669 3622 1275 
L 4263 0 
L 3584 0 
L 2988 1197 
Q 2756 1666 2539 1819 
Q 2322 1972 1947 1972 
L 1259 1972 
L 1259 0 
L 628 0 
L 628 4666 
L 2053 4666 
Q 2853 4666 3247 4331 
Q 3641 3997 3641 3322 
Q 3641 2881 3436 2590 
Q 3231 2300 2841 2188 
z
M 1259 4147 
L 1259 2491 
L 2053 2491 
Q 2509 2491 2742 2702 
Q 2975 2913 2975 3322 
Q 2975 3731 2742 3939 
Q 2509 4147 2053 4147 
L 1259 4147 
z
" transform="scale(0.015625)"/>
       <path id="DejaVuSans-6b" d="M 581 4863 
L 1159 4863 
L 1159 1991 
L 2875 3500 
L 3609 3500 
L 1753 1863 
L 3688 0 
L 2938 0 
L 1159 1709 
L 1159 0 
L 581 0 
L 581 4863 
z
" transform="scale(0.015625)"/>
       <path id="DejaVuSans-4c" d="M 628 4666 
L 1259 4666 
L 1259 531 
L 3531 531 
L 3531 0 
L 628 0 
L 628 4666 
z
" transform="scale(0.015625)"/>
       <path id="DejaVuSans-73" d="M 2834 3397 
L 2834 2853 
Q 2591 2978 2328 3040 
Q 2066 3103 1784 3103 
Q 1356 3103 1142 2972 
Q 928 2841 928 2578 
Q 928 2378 1081 2264 
Q 1234 2150 1697 2047 
L 1894 2003 
Q 2506 1872 2764 1633 
Q 3022 1394 3022 966 
Q 3022 478 2636 193 
Q 2250 -91 1575 -91 
Q 1294 -91 989 -36 
Q 684 19 347 128 
L 347 722 
Q 666 556 975 473 
Q 1284 391 1588 391 
Q 1994 391 2212 530 
Q 2431 669 2431 922 
Q 2431 1156 2273 1281 
Q 2116 1406 1581 1522 
L 1381 1569 
Q 847 1681 609 1914 
Q 372 2147 372 2553 
Q 372 3047 722 3315 
Q 1072 3584 1716 3584 
Q 2034 3584 2315 3537 
Q 2597 3491 2834 3397 
z
" transform="scale(0.015625)"/>
      </defs>
      <use xlink:href="#DejaVuSans-4d"/>
      <use xlink:href="#DejaVuSans-61" x="86.279297"/>
      <use xlink:href="#DejaVuSans-72" x="147.558594"/>
      <use xlink:href="#DejaVuSans-67" x="186.921875"/>
      <use xlink:href="#DejaVuSans-69" x="250.398438"/>
      <use xlink:href="#DejaVuSans-6e" x="278.181641"/>
      <use xlink:href="#DejaVuSans-20" x="341.560547"/>
      <use xlink:href="#DejaVuSans-52" x="373.347656"/>
      <use xlink:href="#DejaVuSans-61" x="440.580078"/>
      <use xlink:href="#DejaVuSans-6e" x="501.859375"/>
      <use xlink:href="#DejaVuSans-6b" x="565.238281"/>
      <use xlink:href="#DejaVuSans-69" x="623.148438"/>
      <use xlink:href="#DejaVuSans-6e" x="650.931641"/>
      <use xlink:href="#DejaVuSans-67" x="714.310547"/>
      <use xlink:href="#DejaVuSans-20" x="777.787109"/>
      <use xlink:href="#DejaVuSans-4c" x="809.574219"/>
      <use xlink:href="#DejaVuSans-6f" x="863.537109"/>
      <use xlink:href="#DejaVuSans-73" x="924.71875"/>
      <use xlink:href="#DejaVuSans-73" x="976.818359"/>
     </g>
    </g>
   </g>
   <g id="line2d_11">
    <path d="M 103.575213 36.760824 
L 104.338029 78.453079 
L 105.100845 62.47763 
L 105.863661 108.365077 
L 106.626478 83.922936 
L 107.389294 152.49495 
L 108.15211 158.346322 
L 108.914926 208.217682 
L 109.677742 203.929837 
L 110.440558 211.219604 
L 111.203374 173.071842 
L 111.966191 177.234993 
L 112.729007 210.875424 
L 113.491823 216.961122 
L 114.254639 208.90935 
L 115.017455 147.590628 
L 115.780271 181.578503 
L 116.543087 182.618162 
L 117.305903 199.817889 
L 118.06872 209.465913 
L 118.831536 214.434965 
L 119.594352 180.609112 
L 120.357168 202.981239 
L 121.119984 205.105215 
L 121.8828 212.828129 
L 122.645616 210.69238 
L 123.408432 218.191559 
L 124.171249 191.484426 
L 124.934065 213.907726 
L 125.696881 207.763532 
L 127.222513 232.280325 
L 127.985329 230.593706 
L 128.748145 228.213495 
L 129.510962 223.987054 
L 131.036594 212.996511 
L 131.79941 226.535912 
L 132.562226 222.472402 
L 133.325042 226.63493 
L 134.087858 223.490903 
L 134.850674 232.533668 
L 135.613491 230.327304 
L 136.376307 233.537253 
L 137.139123 223.835406 
L 137.901939 229.828883 
L 138.664755 232.984662 
L 140.190387 230.164947 
L 140.953203 231.194207 
L 141.71602 232.727031 
L 142.478836 231.385016 
L 143.241652 232.724437 
L 144.004468 233.398963 
L 145.5301 233.618945 
L 146.292916 233.260091 
L 147.055733 233.955653 
L 147.818549 228.959358 
L 148.581365 234.018231 
L 149.344181 233.391168 
L 150.106997 233.167372 
L 150.869813 231.35069 
L 151.632629 234.008997 
L 152.395445 231.888647 
L 153.158262 228.732485 
L 153.921078 233.443854 
L 154.683894 230.772187 
L 155.44671 233.512876 
L 156.209526 234.221873 
L 156.972342 233.685006 
L 157.735158 233.519163 
L 158.497975 231.277332 
L 159.260791 233.743044 
L 160.023607 234.063625 
L 160.786423 233.639174 
L 161.549239 233.598037 
L 162.312055 234.026468 
L 163.074871 233.924965 
L 163.837687 233.11108 
L 164.600504 233.751907 
L 165.36332 233.149834 
L 166.126136 234.132025 
L 166.888952 234.064299 
L 167.651768 234.297601 
L 168.414584 234.200928 
L 169.1774 232.915009 
L 169.940216 233.725603 
L 170.703033 234.006643 
L 171.465849 234.140736 
L 172.228665 233.79559 
L 172.991481 232.092375 
L 173.754297 233.811823 
L 174.517113 233.516353 
L 175.279929 234.095627 
L 176.805562 234.372473 
L 177.568378 234.158501 
L 178.331194 234.315345 
L 179.856826 234.347216 
L 180.619642 234.071526 
L 181.382458 233.013429 
L 182.145275 234.406532 
L 182.908091 234.289224 
L 184.433723 232.877009 
L 185.196539 234.280421 
L 185.959355 234.016088 
L 186.722171 233.943155 
L 187.484988 234.309082 
L 188.247804 233.495475 
L 189.01062 233.559181 
L 189.773436 233.864664 
L 190.536252 234.311197 
L 191.299068 233.721692 
L 192.061884 234.322424 
L 192.8247 234.102951 
L 195.113149 234.351682 
L 196.638781 233.975612 
L 197.401597 233.661394 
L 198.164413 234.273531 
L 199.690046 234.24872 
L 200.452862 232.92663 
L 201.215678 232.839533 
L 201.978494 233.266402 
L 202.74131 234.372646 
L 203.504126 234.042046 
L 204.266942 234.299895 
L 205.792575 234.268454 
L 206.555391 233.510436 
L 207.318207 233.980345 
L 208.081023 233.704743 
L 208.843839 233.722396 
L 210.369471 234.229049 
L 211.895104 233.888652 
L 212.65792 233.612464 
L 213.420736 233.661995 
L 214.183552 234.375862 
L 214.946368 234.332731 
L 215.709184 233.847836 
L 216.472 234.35698 
L 217.234817 233.71046 
L 217.997633 233.62137 
L 218.760449 234.388927 
L 219.523265 234.201912 
L 220.286081 234.325698 
L 221.048897 234.102772 
L 221.811713 234.300429 
L 222.57453 234.058883 
L 223.337346 234.193525 
L 224.100162 233.8786 
L 224.862978 234.254653 
L 225.625794 233.61133 
L 226.38861 234.354729 
L 227.151426 233.995134 
L 227.914242 234.205173 
L 228.677059 234.230551 
L 229.439875 234.023534 
L 230.202691 234.132829 
L 230.965507 233.574992 
L 231.728323 234.241456 
L 232.491139 234.214497 
L 233.253955 234.399447 
L 234.016772 234.068128 
L 234.779588 234.358103 
L 236.30522 234.33595 
L 237.830852 234.232997 
L 238.593668 234.413935 
L 239.356484 234.298614 
L 240.119301 234.028361 
L 241.644933 234.330419 
L 243.170565 234.121675 
L 244.696197 234.298478 
L 245.459013 233.93066 
L 246.22183 234.428338 
L 247.747462 234.216561 
L 248.510278 234.31036 
L 249.273094 234.117864 
L 251.561543 234.146395 
L 252.324359 234.061098 
L 253.087175 234.287725 
L 253.849991 234.336557 
L 254.612807 233.676034 
L 255.375623 234.293613 
L 256.138439 233.583127 
L 256.901255 234.242382 
L 258.426888 234.288699 
L 259.189704 234.300307 
L 259.95252 233.383037 
L 260.715336 234.173973 
L 262.240968 234.376754 
L 263.003784 234.08887 
L 263.766601 234.099944 
L 264.529417 234.354665 
L 265.292233 233.949852 
L 266.055049 234.433551 
L 266.817865 234.413814 
L 267.580681 234.177896 
L 268.343497 234.379567 
L 269.106314 234.383244 
L 269.86913 233.769578 
L 270.631946 234.20349 
L 271.394762 234.41967 
L 272.157578 233.911921 
L 272.920394 234.147739 
L 275.208843 234.411386 
L 276.734475 234.08636 
L 277.497291 234.216788 
L 278.260107 234.06743 
L 279.022923 234.169616 
L 279.785739 234.074057 
L 280.548556 234.300292 
L 281.311372 234.232469 
L 282.074188 233.645046 
L 282.837004 234.384958 
L 283.59982 234.24531 
L 284.362636 234.32057 
L 285.125452 234.14448 
L 285.888268 234.293268 
L 286.651085 234.168463 
L 287.413901 234.355078 
L 288.176717 233.934717 
L 288.939533 234.308925 
L 289.702349 234.192645 
L 290.465165 234.412494 
L 291.227981 234.224204 
L 291.990797 234.374582 
L 293.51643 234.369184 
L 294.279246 234.18022 
L 295.042062 234.110437 
L 296.567694 234.358415 
L 298.093327 234.088484 
L 298.856143 234.256002 
L 299.618959 233.875781 
L 300.381775 234.163826 
L 301.144591 233.638493 
L 301.907407 234.324302 
L 302.670223 234.229896 
L 303.433039 234.322727 
L 304.195856 233.913975 
L 304.958672 234.327603 
L 306.484304 234.297219 
L 307.24712 234.141288 
L 308.009936 234.139213 
L 309.535569 234.392623 
L 310.298385 234.062293 
L 312.586833 234.278352 
L 314.112465 234.303515 
L 314.875281 233.812236 
L 315.638098 233.524172 
L 316.400914 233.909934 
L 317.16373 233.879889 
L 318.689362 234.291502 
L 319.452178 234.316868 
L 320.214994 234.121184 
L 320.97781 234.218958 
L 321.740627 234.011722 
L 322.503443 234.177389 
L 324.791891 233.982054 
L 325.554707 234.428387 
L 326.317523 233.55642 
L 327.08034 234.071899 
L 327.843156 234.393955 
L 328.605972 234.235797 
L 329.368788 233.782922 
L 330.131604 234.222365 
L 332.420052 234.42853 
L 333.945685 234.307429 
L 334.708501 234.417798 
L 335.471317 234.375486 
L 336.234133 234.200309 
L 338.522581 234.144046 
L 339.285398 233.885351 
L 340.048214 234.408252 
L 340.81103 234.340847 
L 341.573846 234.40499 
L 342.336662 234.126305 
L 343.099478 234.080174 
L 343.862294 234.182596 
L 344.625111 234.413128 
L 345.387927 234.267614 
L 346.150743 233.874752 
L 346.913559 234.154834 
L 347.676375 234.136974 
L 348.439191 234.336375 
L 349.202007 233.894508 
L 349.964823 233.660359 
L 350.72764 234.223063 
L 351.490456 234.140505 
L 352.253272 234.388776 
L 354.54172 234.16176 
L 355.304536 234.400582 
L 356.067353 234.106183 
L 356.830169 234.317168 
L 357.592985 234.323601 
L 358.355801 234.138491 
L 359.118617 234.224459 
L 359.881433 233.864202 
L 360.644249 234.276959 
L 361.407065 233.783845 
L 362.169882 234.319778 
L 362.932698 234.141789 
L 363.695514 234.317417 
L 365.983962 234.110431 
L 366.746778 234.419248 
L 367.509594 233.951448 
L 368.272411 234.13776 
L 369.798043 234.201535 
L 370.560859 234.351227 
L 371.323675 234.336715 
L 372.086491 234.109493 
L 372.849307 234.226692 
L 373.612124 234.009459 
L 374.37494 234.298438 
L 375.137756 233.999154 
L 375.900572 234.326926 
L 376.663388 234.423029 
L 378.18902 234.158765 
L 379.714653 234.379697 
L 381.240285 234.260757 
L 382.003101 234.233953 
L 382.765917 234.423071 
L 384.291549 234.020609 
L 385.817182 234.309431 
L 386.579998 234.215987 
L 387.342814 233.962046 
L 388.10563 234.307799 
L 388.868446 233.865286 
L 389.631262 234.051437 
L 390.394078 234.365127 
L 391.156895 234.413641 
L 391.919711 234.252115 
L 392.682527 234.285761 
L 394.208159 233.945112 
L 394.970975 234.240309 
L 395.733791 234.047222 
L 396.496607 234.095077 
L 397.259424 234.365367 
L 398.02224 234.308281 
L 398.785056 234.421809 
L 399.547872 233.66417 
L 400.310688 234.360567 
L 401.073504 234.261895 
L 401.83632 234.012153 
L 402.599137 234.349213 
L 403.361953 234.259425 
L 404.124769 234.000392 
L 404.887585 234.201192 
L 405.650401 234.059338 
L 406.413217 234.375759 
L 407.176033 234.240883 
L 407.938849 234.307234 
L 407.938849 234.307234 
" clip-path="url(#p06ce10a202)" style="fill: none; stroke: #ffc1a8; stroke-width: 2.25; stroke-linecap: round"/>
   </g>
   <g id="patch_3">
    <path d="M 88.357031 244.317187 
L 88.357031 26.877187 
" style="fill: none; stroke: #ffc1a8; stroke-width: 1.875; stroke-linejoin: miter; stroke-linecap: square"/>
   </g>
   <g id="patch_4">
    <path d="M 423.157031 244.317187 
L 423.157031 26.877187 
" style="fill: none; stroke: #ffc1a8; stroke-width: 1.875; stroke-linejoin: miter; stroke-linecap: square"/>
   </g>
   <g id="patch_5">
    <path d="M 88.357031 244.317187 
L 423.157031 244.317187 
" style="fill: none; stroke: #ffc1a8; stroke-width: 1.875; stroke-linejoin: miter; stroke-linecap: square"/>
   </g>
   <g id="patch_6">
    <path d="M 88.357031 26.877187 
L 423.157031 26.877187 
" style="fill: none; stroke: #ffc1a8; stroke-width: 1.875; stroke-linejoin: miter; stroke-linecap: square"/>
   </g>
   <g id="text_13">
    <!-- Margin = 0 -->
    <g style="fill: #ffc1a8" transform="translate(206.027813 20.877187)scale(0.18 -0.18)">
     <defs>
      <path id="DejaVuSans-3d" d="M 678 2906 
L 4684 2906 
L 4684 2381 
L 678 2381 
L 678 2906 
z
M 678 1631 
L 4684 1631 
L 4684 1100 
L 678 1100 
L 678 1631 
z
" transform="scale(0.015625)"/>
     </defs>
     <use xlink:href="#DejaVuSans-4d"/>
     <use xlink:href="#DejaVuSans-61" x="86.279297"/>
     <use xlink:href="#DejaVuSans-72" x="147.558594"/>
     <use xlink:href="#DejaVuSans-67" x="186.921875"/>
     <use xlink:href="#DejaVuSans-69" x="250.398438"/>
     <use xlink:href="#DejaVuSans-6e" x="278.181641"/>
     <use xlink:href="#DejaVuSans-20" x="341.560547"/>
     <use xlink:href="#DejaVuSans-3d" x="373.347656"/>
     <use xlink:href="#DejaVuSans-20" x="457.136719"/>
     <use xlink:href="#DejaVuSans-30" x="488.923828"/>
    </g>
   </g>
  </g>
 </g>
 <defs>
  <clipPath id="p06ce10a202">
   <rect x="88.357031" y="26.877187" width="334.8" height="217.44"/>
  </clipPath>
 </defs>
</svg>
