<?xml version="1.0" encoding="utf-8" standalone="no"?>
<!DOCTYPE svg PUBLIC "-//W3C//DTD SVG 1.1//EN"
  "http://www.w3.org/Graphics/SVG/1.1/DTD/svg11.dtd">
<svg xmlns:xlink="http://www.w3.org/1999/xlink" width="569.99952pt" height="569.99952pt" viewBox="0 0 569.99952 569.99952" xmlns="http://www.w3.org/2000/svg" version="1.1">
 <metadata>
  <rdf:RDF xmlns:dc="http://purl.org/dc/elements/1.1/" xmlns:cc="http://creativecommons.org/ns#" xmlns:rdf="http://www.w3.org/1999/02/22-rdf-syntax-ns#">
   <cc:Work>
    <dc:type rdf:resource="http://purl.org/dc/dcmitype/StillImage"/>
    <dc:date>2023-01-24T08:31:57.266307</dc:date>
    <dc:format>image/svg+xml</dc:format>
    <dc:creator>
     <cc:Agent>
      <dc:title>Matplotlib v3.6.2, https://matplotlib.org/</dc:title>
     </cc:Agent>
    </dc:creator>
   </cc:Work>
  </rdf:RDF>
 </metadata>
 <defs>
  <style type="text/css">*{stroke-linejoin: round; stroke-linecap: butt}</style>
 </defs>
 <g id="figure_1">
  <g id="patch_1">
   <path d="M 0 569.99952 
L 569.99952 569.99952 
L 569.99952 0 
L 0 0 
L 0 569.99952 
z
" style="fill: none"/>
  </g>
  <g id="axes_1">
   <g id="patch_2">
    <path d="M 62.934875 256.212151 
L 569.99952 256.212151 
L 569.99952 21.196875 
L 62.934875 21.196875 
L 62.934875 256.212151 
z
" style="fill: none"/>
   </g>
   <g id="matplotlib.axis_1">
    <g id="xtick_1">
     <g id="line2d_1">
      <path d="M 137.897448 256.212151 
L 137.897448 21.196875 
" clip-path="url(#p819e7c756c)" style="fill: none; stroke: #ffc1a8; stroke-width: 0.8; stroke-linecap: square"/>
     </g>
     <g id="line2d_2">
      <defs>
       <path id="m8f8b59042f" d="M 0 0 
L 0 3.5 
" style="stroke: #ffc1a8; stroke-width: 0.8"/>
      </defs>
      <g>
       <use xlink:href="#m8f8b59042f" x="137.897448" y="256.212151" style="fill: #ffc1a8; stroke: #ffc1a8; stroke-width: 0.8"/>
      </g>
     </g>
    </g>
    <g id="xtick_2">
     <g id="line2d_3">
      <path d="M 239.645805 256.212151 
L 239.645805 21.196875 
" clip-path="url(#p819e7c756c)" style="fill: none; stroke: #ffc1a8; stroke-width: 0.8; stroke-linecap: square"/>
     </g>
     <g id="line2d_4">
      <g>
       <use xlink:href="#m8f8b59042f" x="239.645805" y="256.212151" style="fill: #ffc1a8; stroke: #ffc1a8; stroke-width: 0.8"/>
      </g>
     </g>
    </g>
    <g id="xtick_3">
     <g id="line2d_5">
      <path d="M 343.080599 256.212151 
L 343.080599 21.196875 
" clip-path="url(#p819e7c756c)" style="fill: none; stroke: #ffc1a8; stroke-width: 0.8; stroke-linecap: square"/>
     </g>
     <g id="line2d_6">
      <g>
       <use xlink:href="#m8f8b59042f" x="343.080599" y="256.212151" style="fill: #ffc1a8; stroke: #ffc1a8; stroke-width: 0.8"/>
      </g>
     </g>
    </g>
    <g id="xtick_4">
     <g id="line2d_7">
      <path d="M 444.828956 256.212151 
L 444.828956 21.196875 
" clip-path="url(#p819e7c756c)" style="fill: none; stroke: #ffc1a8; stroke-width: 0.8; stroke-linecap: square"/>
     </g>
     <g id="line2d_8">
      <g>
       <use xlink:href="#m8f8b59042f" x="444.828956" y="256.212151" style="fill: #ffc1a8; stroke: #ffc1a8; stroke-width: 0.8"/>
      </g>
     </g>
    </g>
    <g id="xtick_5">
     <g id="line2d_9">
      <path d="M 548.26375 256.212151 
L 548.26375 21.196875 
" clip-path="url(#p819e7c756c)" style="fill: none; stroke: #ffc1a8; stroke-width: 0.8; stroke-linecap: square"/>
     </g>
     <g id="line2d_10">
      <g>
       <use xlink:href="#m8f8b59042f" x="548.26375" y="256.212151" style="fill: #ffc1a8; stroke: #ffc1a8; stroke-width: 0.8"/>
      </g>
     </g>
    </g>
   </g>
   <g id="matplotlib.axis_2">
    <g id="ytick_1">
     <g id="line2d_11">
      <path d="M 62.934875 245.564689 
L 569.99952 245.564689 
" clip-path="url(#p819e7c756c)" style="fill: none; stroke: #ffc1a8; stroke-width: 0.8; stroke-linecap: square"/>
     </g>
     <g id="line2d_12">
      <defs>
       <path id="m0790fdc57b" d="M 0 0 
L -3.5 0 
" style="stroke: #ffc1a8; stroke-width: 0.8"/>
      </defs>
      <g>
       <use xlink:href="#m0790fdc57b" x="62.934875" y="245.564689" style="fill: #ffc1a8; stroke: #ffc1a8; stroke-width: 0.8"/>
      </g>
     </g>
     <g id="text_1">
      <!-- 0.0 -->
      <g style="fill: #ffc1a8" transform="translate(33.034375 251.035564) scale(0.144 -0.144)">
       <defs>
        <path id="DejaVuSans-30" d="M 2034 4250 
Q 1547 4250 1301 3770 
Q 1056 3291 1056 2328 
Q 1056 1369 1301 889 
Q 1547 409 2034 409 
Q 2525 409 2770 889 
Q 3016 1369 3016 2328 
Q 3016 3291 2770 3770 
Q 2525 4250 2034 4250 
z
M 2034 4750 
Q 2819 4750 3233 4129 
Q 3647 3509 3647 2328 
Q 3647 1150 3233 529 
Q 2819 -91 2034 -91 
Q 1250 -91 836 529 
Q 422 1150 422 2328 
Q 422 3509 836 4129 
Q 1250 4750 2034 4750 
z
" transform="scale(0.015625)"/>
        <path id="DejaVuSans-2e" d="M 684 794 
L 1344 794 
L 1344 0 
L 684 0 
L 684 794 
z
" transform="scale(0.015625)"/>
       </defs>
       <use xlink:href="#DejaVuSans-30"/>
       <use xlink:href="#DejaVuSans-2e" x="63.623047"/>
       <use xlink:href="#DejaVuSans-30" x="95.410156"/>
      </g>
     </g>
    </g>
    <g id="ytick_2">
     <g id="line2d_13">
      <path d="M 62.934875 214.050683 
L 569.99952 214.050683 
" clip-path="url(#p819e7c756c)" style="fill: none; stroke: #ffc1a8; stroke-width: 0.8; stroke-linecap: square"/>
     </g>
     <g id="line2d_14">
      <g>
       <use xlink:href="#m0790fdc57b" x="62.934875" y="214.050683" style="fill: #ffc1a8; stroke: #ffc1a8; stroke-width: 0.8"/>
      </g>
     </g>
     <g id="text_2">
      <!-- 0.2 -->
      <g style="fill: #ffc1a8" transform="translate(33.034375 219.521558) scale(0.144 -0.144)">
       <defs>
        <path id="DejaVuSans-32" d="M 1228 531 
L 3431 531 
L 3431 0 
L 469 0 
L 469 531 
Q 828 903 1448 1529 
Q 2069 2156 2228 2338 
Q 2531 2678 2651 2914 
Q 2772 3150 2772 3378 
Q 2772 3750 2511 3984 
Q 2250 4219 1831 4219 
Q 1534 4219 1204 4116 
Q 875 4013 500 3803 
L 500 4441 
Q 881 4594 1212 4672 
Q 1544 4750 1819 4750 
Q 2544 4750 2975 4387 
Q 3406 4025 3406 3419 
Q 3406 3131 3298 2873 
Q 3191 2616 2906 2266 
Q 2828 2175 2409 1742 
Q 1991 1309 1228 531 
z
" transform="scale(0.015625)"/>
       </defs>
       <use xlink:href="#DejaVuSans-30"/>
       <use xlink:href="#DejaVuSans-2e" x="63.623047"/>
       <use xlink:href="#DejaVuSans-32" x="95.410156"/>
      </g>
     </g>
    </g>
    <g id="ytick_3">
     <g id="line2d_15">
      <path d="M 62.934875 182.536677 
L 569.99952 182.536677 
" clip-path="url(#p819e7c756c)" style="fill: none; stroke: #ffc1a8; stroke-width: 0.8; stroke-linecap: square"/>
     </g>
     <g id="line2d_16">
      <g>
       <use xlink:href="#m0790fdc57b" x="62.934875" y="182.536677" style="fill: #ffc1a8; stroke: #ffc1a8; stroke-width: 0.8"/>
      </g>
     </g>
     <g id="text_3">
      <!-- 0.4 -->
      <g style="fill: #ffc1a8" transform="translate(33.034375 188.007552) scale(0.144 -0.144)">
       <defs>
        <path id="DejaVuSans-34" d="M 2419 4116 
L 825 1625 
L 2419 1625 
L 2419 4116 
z
M 2253 4666 
L 3047 4666 
L 3047 1625 
L 3713 1625 
L 3713 1100 
L 3047 1100 
L 3047 0 
L 2419 0 
L 2419 1100 
L 313 1100 
L 313 1709 
L 2253 4666 
z
" transform="scale(0.015625)"/>
       </defs>
       <use xlink:href="#DejaVuSans-30"/>
       <use xlink:href="#DejaVuSans-2e" x="63.623047"/>
       <use xlink:href="#DejaVuSans-34" x="95.410156"/>
      </g>
     </g>
    </g>
    <g id="ytick_4">
     <g id="line2d_17">
      <path d="M 62.934875 151.022672 
L 569.99952 151.022672 
" clip-path="url(#p819e7c756c)" style="fill: none; stroke: #ffc1a8; stroke-width: 0.8; stroke-linecap: square"/>
     </g>
     <g id="line2d_18">
      <g>
       <use xlink:href="#m0790fdc57b" x="62.934875" y="151.022672" style="fill: #ffc1a8; stroke: #ffc1a8; stroke-width: 0.8"/>
      </g>
     </g>
     <g id="text_4">
      <!-- 0.6 -->
      <g style="fill: #ffc1a8" transform="translate(33.034375 156.493547) scale(0.144 -0.144)">
       <defs>
        <path id="DejaVuSans-36" d="M 2113 2584 
Q 1688 2584 1439 2293 
Q 1191 2003 1191 1497 
Q 1191 994 1439 701 
Q 1688 409 2113 409 
Q 2538 409 2786 701 
Q 3034 994 3034 1497 
Q 3034 2003 2786 2293 
Q 2538 2584 2113 2584 
z
M 3366 4563 
L 3366 3988 
Q 3128 4100 2886 4159 
Q 2644 4219 2406 4219 
Q 1781 4219 1451 3797 
Q 1122 3375 1075 2522 
Q 1259 2794 1537 2939 
Q 1816 3084 2150 3084 
Q 2853 3084 3261 2657 
Q 3669 2231 3669 1497 
Q 3669 778 3244 343 
Q 2819 -91 2113 -91 
Q 1303 -91 875 529 
Q 447 1150 447 2328 
Q 447 3434 972 4092 
Q 1497 4750 2381 4750 
Q 2619 4750 2861 4703 
Q 3103 4656 3366 4563 
z
" transform="scale(0.015625)"/>
       </defs>
       <use xlink:href="#DejaVuSans-30"/>
       <use xlink:href="#DejaVuSans-2e" x="63.623047"/>
       <use xlink:href="#DejaVuSans-36" x="95.410156"/>
      </g>
     </g>
    </g>
    <g id="ytick_5">
     <g id="line2d_19">
      <path d="M 62.934875 119.508666 
L 569.99952 119.508666 
" clip-path="url(#p819e7c756c)" style="fill: none; stroke: #ffc1a8; stroke-width: 0.8; stroke-linecap: square"/>
     </g>
     <g id="line2d_20">
      <g>
       <use xlink:href="#m0790fdc57b" x="62.934875" y="119.508666" style="fill: #ffc1a8; stroke: #ffc1a8; stroke-width: 0.8"/>
      </g>
     </g>
     <g id="text_5">
      <!-- 0.8 -->
      <g style="fill: #ffc1a8" transform="translate(33.034375 124.979541) scale(0.144 -0.144)">
       <defs>
        <path id="DejaVuSans-38" d="M 2034 2216 
Q 1584 2216 1326 1975 
Q 1069 1734 1069 1313 
Q 1069 891 1326 650 
Q 1584 409 2034 409 
Q 2484 409 2743 651 
Q 3003 894 3003 1313 
Q 3003 1734 2745 1975 
Q 2488 2216 2034 2216 
z
M 1403 2484 
Q 997 2584 770 2862 
Q 544 3141 544 3541 
Q 544 4100 942 4425 
Q 1341 4750 2034 4750 
Q 2731 4750 3128 4425 
Q 3525 4100 3525 3541 
Q 3525 3141 3298 2862 
Q 3072 2584 2669 2484 
Q 3125 2378 3379 2068 
Q 3634 1759 3634 1313 
Q 3634 634 3220 271 
Q 2806 -91 2034 -91 
Q 1263 -91 848 271 
Q 434 634 434 1313 
Q 434 1759 690 2068 
Q 947 2378 1403 2484 
z
M 1172 3481 
Q 1172 3119 1398 2916 
Q 1625 2713 2034 2713 
Q 2441 2713 2670 2916 
Q 2900 3119 2900 3481 
Q 2900 3844 2670 4047 
Q 2441 4250 2034 4250 
Q 1625 4250 1398 4047 
Q 1172 3844 1172 3481 
z
" transform="scale(0.015625)"/>
       </defs>
       <use xlink:href="#DejaVuSans-30"/>
       <use xlink:href="#DejaVuSans-2e" x="63.623047"/>
       <use xlink:href="#DejaVuSans-38" x="95.410156"/>
      </g>
     </g>
    </g>
    <g id="ytick_6">
     <g id="line2d_21">
      <path d="M 62.934875 87.994661 
L 569.99952 87.994661 
" clip-path="url(#p819e7c756c)" style="fill: none; stroke: #ffc1a8; stroke-width: 0.8; stroke-linecap: square"/>
     </g>
     <g id="line2d_22">
      <g>
       <use xlink:href="#m0790fdc57b" x="62.934875" y="87.994661" style="fill: #ffc1a8; stroke: #ffc1a8; stroke-width: 0.8"/>
      </g>
     </g>
     <g id="text_6">
      <!-- 1.0 -->
      <g style="fill: #ffc1a8" transform="translate(33.034375 93.465536) scale(0.144 -0.144)">
       <defs>
        <path id="DejaVuSans-31" d="M 794 531 
L 1825 531 
L 1825 4091 
L 703 3866 
L 703 4441 
L 1819 4666 
L 2450 4666 
L 2450 531 
L 3481 531 
L 3481 0 
L 794 0 
L 794 531 
z
" transform="scale(0.015625)"/>
       </defs>
       <use xlink:href="#DejaVuSans-31"/>
       <use xlink:href="#DejaVuSans-2e" x="63.623047"/>
       <use xlink:href="#DejaVuSans-30" x="95.410156"/>
      </g>
     </g>
    </g>
    <g id="ytick_7">
     <g id="line2d_23">
      <path d="M 62.934875 56.480655 
L 569.99952 56.480655 
" clip-path="url(#p819e7c756c)" style="fill: none; stroke: #ffc1a8; stroke-width: 0.8; stroke-linecap: square"/>
     </g>
     <g id="line2d_24">
      <g>
       <use xlink:href="#m0790fdc57b" x="62.934875" y="56.480655" style="fill: #ffc1a8; stroke: #ffc1a8; stroke-width: 0.8"/>
      </g>
     </g>
     <g id="text_7">
      <!-- 1.2 -->
      <g style="fill: #ffc1a8" transform="translate(33.034375 61.95153) scale(0.144 -0.144)">
       <use xlink:href="#DejaVuSans-31"/>
       <use xlink:href="#DejaVuSans-2e" x="63.623047"/>
       <use xlink:href="#DejaVuSans-32" x="95.410156"/>
      </g>
     </g>
    </g>
    <g id="ytick_8">
     <g id="line2d_25">
      <path d="M 62.934875 24.966649 
L 569.99952 24.966649 
" clip-path="url(#p819e7c756c)" style="fill: none; stroke: #ffc1a8; stroke-width: 0.8; stroke-linecap: square"/>
     </g>
     <g id="line2d_26">
      <g>
       <use xlink:href="#m0790fdc57b" x="62.934875" y="24.966649" style="fill: #ffc1a8; stroke: #ffc1a8; stroke-width: 0.8"/>
      </g>
     </g>
     <g id="text_8">
      <!-- 1.4 -->
      <g style="fill: #ffc1a8" transform="translate(33.034375 30.437524) scale(0.144 -0.144)">
       <use xlink:href="#DejaVuSans-31"/>
       <use xlink:href="#DejaVuSans-2e" x="63.623047"/>
       <use xlink:href="#DejaVuSans-34" x="95.410156"/>
      </g>
     </g>
    </g>
    <g id="text_9">
     <!-- NMR -->
     <g style="fill: #ffb2a8" transform="translate(22.795312 173.291232) rotate(-90) scale(0.3 -0.3)">
      <defs>
       <path id="DejaVuSans-4e" d="M 628 4666 
L 1478 4666 
L 3547 763 
L 3547 4666 
L 4159 4666 
L 4159 0 
L 3309 0 
L 1241 3903 
L 1241 0 
L 628 0 
L 628 4666 
z
" transform="scale(0.015625)"/>
       <path id="DejaVuSans-4d" d="M 628 4666 
L 1569 4666 
L 2759 1491 
L 3956 4666 
L 4897 4666 
L 4897 0 
L 4281 0 
L 4281 4097 
L 3078 897 
L 2444 897 
L 1241 4097 
L 1241 0 
L 628 0 
L 628 4666 
z
" transform="scale(0.015625)"/>
       <path id="DejaVuSans-52" d="M 2841 2188 
Q 3044 2119 3236 1894 
Q 3428 1669 3622 1275 
L 4263 0 
L 3584 0 
L 2988 1197 
Q 2756 1666 2539 1819 
Q 2322 1972 1947 1972 
L 1259 1972 
L 1259 0 
L 628 0 
L 628 4666 
L 2053 4666 
Q 2853 4666 3247 4331 
Q 3641 3997 3641 3322 
Q 3641 2881 3436 2590 
Q 3231 2300 2841 2188 
z
M 1259 4147 
L 1259 2491 
L 2053 2491 
Q 2509 2491 2742 2702 
Q 2975 2913 2975 3322 
Q 2975 3731 2742 3939 
Q 2509 4147 2053 4147 
L 1259 4147 
z
" transform="scale(0.015625)"/>
      </defs>
      <use xlink:href="#DejaVuSans-4e"/>
      <use xlink:href="#DejaVuSans-4d" x="74.804688"/>
      <use xlink:href="#DejaVuSans-52" x="161.083984"/>
     </g>
    </g>
    <g id="text_10">
     <!-- 1e3 -->
     <g style="fill: #ffc1a8" transform="translate(62.934875 18.196875) scale(0.144 -0.144)">
      <defs>
       <path id="DejaVuSans-65" d="M 3597 1894 
L 3597 1613 
L 953 1613 
Q 991 1019 1311 708 
Q 1631 397 2203 397 
Q 2534 397 2845 478 
Q 3156 559 3463 722 
L 3463 178 
Q 3153 47 2828 -22 
Q 2503 -91 2169 -91 
Q 1331 -91 842 396 
Q 353 884 353 1716 
Q 353 2575 817 3079 
Q 1281 3584 2069 3584 
Q 2775 3584 3186 3129 
Q 3597 2675 3597 1894 
z
M 3022 2063 
Q 3016 2534 2758 2815 
Q 2500 3097 2075 3097 
Q 1594 3097 1305 2825 
Q 1016 2553 972 2059 
L 3022 2063 
z
" transform="scale(0.015625)"/>
       <path id="DejaVuSans-33" d="M 2597 2516 
Q 3050 2419 3304 2112 
Q 3559 1806 3559 1356 
Q 3559 666 3084 287 
Q 2609 -91 1734 -91 
Q 1441 -91 1130 -33 
Q 819 25 488 141 
L 488 750 
Q 750 597 1062 519 
Q 1375 441 1716 441 
Q 2309 441 2620 675 
Q 2931 909 2931 1356 
Q 2931 1769 2642 2001 
Q 2353 2234 1838 2234 
L 1294 2234 
L 1294 2753 
L 1863 2753 
Q 2328 2753 2575 2939 
Q 2822 3125 2822 3475 
Q 2822 3834 2567 4026 
Q 2313 4219 1838 4219 
Q 1578 4219 1281 4162 
Q 984 4106 628 3988 
L 628 4550 
Q 988 4650 1302 4700 
Q 1616 4750 1894 4750 
Q 2613 4750 3031 4423 
Q 3450 4097 3450 3541 
Q 3450 3153 3228 2886 
Q 3006 2619 2597 2516 
z
" transform="scale(0.015625)"/>
      </defs>
      <use xlink:href="#DejaVuSans-31"/>
      <use xlink:href="#DejaVuSans-65" x="63.623047"/>
      <use xlink:href="#DejaVuSans-33" x="125.146484"/>
     </g>
    </g>
   </g>
   <g id="line2d_27">
    <path d="M 85.983268 245.529638 
L 89.919686 244.69185 
L 93.85518 241.663365 
L 97.792379 240.409674 
L 101.766079 239.609504 
L 105.676491 238.393484 
L 109.6996 239.214849 
L 113.548248 240.604046 
L 117.484087 240.469151 
L 121.777806 241.212072 
L 125.355823 240.867601 
L 129.358235 238.525278 
L 133.227404 236.808725 
L 137.246127 235.563835 
L 141.098731 233.92604 
L 145.037043 232.18941 
L 148.9735 231.703869 
L 152.906886 228.767085 
L 156.775886 226.689345 
L 160.748466 226.216527 
L 164.666387 225.305205 
L 168.585687 225.388739 
L 172.520771 225.516601 
L 176.46352 223.612607 
L 180.398774 219.926 
L 184.359799 217.465492 
L 188.277401 214.383053 
L 192.221828 207.387414 
L 196.125331 198.933561 
L 200.06346 190.526309 
L 204.001082 178.200473 
L 207.935978 169.471287 
L 211.87576 167.752223 
L 215.80763 162.720207 
L 219.745232 159.589457 
L 223.719303 159.589387 
L 223.719303 156.478642 
L 227.615954 156.19633 
L 227.615954 156.196291 
L 231.551852 152.482944 
L 235.485485 149.42035 
L 239.448098 149.420257 
L 239.448098 147.385739 
L 243.440581 144.7085 
L 243.440581 144.708414 
L 247.291129 144.708311 
L 247.291129 142.867354 
L 251.226519 142.867375 
L 251.226519 143.609846 
L 255.290578 145.061991 
L 255.290578 145.062038 
L 259.097599 145.062086 
L 259.097599 148.0834 
L 263.032423 152.6827 
L 263.032423 152.682691 
L 266.970695 155.535954 
L 270.986172 159.502104 
L 274.849394 160.824181 
L 278.77347 158.035859 
L 282.711931 157.471102 
L 286.652572 154.771462 
L 290.581664 155.090946 
L 294.630648 154.822073 
L 298.499185 152.698835 
L 302.389012 151.216753 
L 306.326673 148.991687 
L 310.261302 147.571934 
L 314.203999 145.921428 
L 318.131835 145.784244 
L 322.070062 147.780625 
L 326.007833 149.294812 
L 329.938337 148.902995 
L 333.87456 148.705247 
L 337.811317 144.933389 
L 341.748763 140.900753 
L 345.683236 137.959566 
L 350.190655 134.211471 
L 354.116682 132.59016 
L 358.054233 130.545327 
L 361.988068 126.04618 
L 365.926158 122.127639 
L 369.864938 116.63012 
L 373.788754 110.372606 
L 377.72402 108.386283 
L 381.658051 109.325679 
L 385.592608 110.740014 
L 389.532878 112.071593 
L 393.469595 114.247945 
L 397.373137 110.729445 
L 401.320206 109.957922 
L 405.232759 112.564341 
L 409.17219 112.705439 
L 413.102941 110.719323 
L 417.07664 106.237812 
L 420.973324 103.700544 
L 424.987747 107.257606 
L 428.842784 112.197468 
L 432.792605 106.860234 
L 436.714078 97.246338 
L 440.6847 88.849682 
L 444.604723 83.605272 
L 448.58539 78.024783 
L 452.454169 71.683897 
L 456.486093 66.337205 
L 460.349953 64.083318 
L 464.403752 60.873501 
L 468.285367 58.520204 
L 472.241194 57.970018 
L 476.084005 56.257259 
L 480.06656 53.666174 
L 484.041411 51.887598 
L 487.893227 50.853374 
L 491.828585 48.497991 
L 495.767456 50.431372 
L 499.702196 50.378969 
L 503.631262 46.624798 
L 507.568747 44.137195 
L 511.550638 39.345996 
L 515.447394 40.902313 
L 519.356407 48.785354 
L 523.320367 48.343087 
L 527.203348 43.617781 
L 531.142805 37.981393 
L 535.145952 35.028595 
L 539.051023 31.879388 
L 542.986758 32.185254 
L 546.951127 36.108086 
" clip-path="url(#p819e7c756c)" style="fill: none; stroke: #ffb2a8; stroke-width: 3; stroke-linecap: square"/>
   </g>
   <g id="patch_3">
    <path d="M 62.934875 256.212151 
L 62.934875 21.196875 
" style="fill: none; stroke: #ffc1a8; stroke-width: 0.8; stroke-linejoin: miter; stroke-linecap: square"/>
   </g>
   <g id="patch_4">
    <path d="M 569.99952 256.212151 
L 569.99952 21.196875 
" style="fill: none; stroke: #ffc1a8; stroke-width: 0.8; stroke-linejoin: miter; stroke-linecap: square"/>
   </g>
   <g id="patch_5">
    <path d="M 62.934875 256.212151 
L 569.99952 256.212151 
" style="fill: none; stroke: #ffc1a8; stroke-width: 0.8; stroke-linejoin: miter; stroke-linecap: square"/>
   </g>
   <g id="patch_6">
    <path d="M 62.934875 21.196875 
L 569.99952 21.196875 
" style="fill: none; stroke: #ffc1a8; stroke-width: 0.8; stroke-linejoin: miter; stroke-linecap: square"/>
   </g>
   <g id="text_11">
    <!-- Cumulative Stake Value -->
    <g style="fill: #ffc1a8" transform="translate(197.595323 15.196875) scale(0.2 -0.2)">
     <defs>
      <path id="DejaVuSans-43" d="M 4122 4306 
L 4122 3641 
Q 3803 3938 3442 4084 
Q 3081 4231 2675 4231 
Q 1875 4231 1450 3742 
Q 1025 3253 1025 2328 
Q 1025 1406 1450 917 
Q 1875 428 2675 428 
Q 3081 428 3442 575 
Q 3803 722 4122 1019 
L 4122 359 
Q 3791 134 3420 21 
Q 3050 -91 2638 -91 
Q 1578 -91 968 557 
Q 359 1206 359 2328 
Q 359 3453 968 4101 
Q 1578 4750 2638 4750 
Q 3056 4750 3426 4639 
Q 3797 4528 4122 4306 
z
" transform="scale(0.015625)"/>
      <path id="DejaVuSans-75" d="M 544 1381 
L 544 3500 
L 1119 3500 
L 1119 1403 
Q 1119 906 1312 657 
Q 1506 409 1894 409 
Q 2359 409 2629 706 
Q 2900 1003 2900 1516 
L 2900 3500 
L 3475 3500 
L 3475 0 
L 2900 0 
L 2900 538 
Q 2691 219 2414 64 
Q 2138 -91 1772 -91 
Q 1169 -91 856 284 
Q 544 659 544 1381 
z
M 1991 3584 
L 1991 3584 
z
" transform="scale(0.015625)"/>
      <path id="DejaVuSans-6d" d="M 3328 2828 
Q 3544 3216 3844 3400 
Q 4144 3584 4550 3584 
Q 5097 3584 5394 3201 
Q 5691 2819 5691 2113 
L 5691 0 
L 5113 0 
L 5113 2094 
Q 5113 2597 4934 2840 
Q 4756 3084 4391 3084 
Q 3944 3084 3684 2787 
Q 3425 2491 3425 1978 
L 3425 0 
L 2847 0 
L 2847 2094 
Q 2847 2600 2669 2842 
Q 2491 3084 2119 3084 
Q 1678 3084 1418 2786 
Q 1159 2488 1159 1978 
L 1159 0 
L 581 0 
L 581 3500 
L 1159 3500 
L 1159 2956 
Q 1356 3278 1631 3431 
Q 1906 3584 2284 3584 
Q 2666 3584 2933 3390 
Q 3200 3197 3328 2828 
z
" transform="scale(0.015625)"/>
      <path id="DejaVuSans-6c" d="M 603 4863 
L 1178 4863 
L 1178 0 
L 603 0 
L 603 4863 
z
" transform="scale(0.015625)"/>
      <path id="DejaVuSans-61" d="M 2194 1759 
Q 1497 1759 1228 1600 
Q 959 1441 959 1056 
Q 959 750 1161 570 
Q 1363 391 1709 391 
Q 2188 391 2477 730 
Q 2766 1069 2766 1631 
L 2766 1759 
L 2194 1759 
z
M 3341 1997 
L 3341 0 
L 2766 0 
L 2766 531 
Q 2569 213 2275 61 
Q 1981 -91 1556 -91 
Q 1019 -91 701 211 
Q 384 513 384 1019 
Q 384 1609 779 1909 
Q 1175 2209 1959 2209 
L 2766 2209 
L 2766 2266 
Q 2766 2663 2505 2880 
Q 2244 3097 1772 3097 
Q 1472 3097 1187 3025 
Q 903 2953 641 2809 
L 641 3341 
Q 956 3463 1253 3523 
Q 1550 3584 1831 3584 
Q 2591 3584 2966 3190 
Q 3341 2797 3341 1997 
z
" transform="scale(0.015625)"/>
      <path id="DejaVuSans-74" d="M 1172 4494 
L 1172 3500 
L 2356 3500 
L 2356 3053 
L 1172 3053 
L 1172 1153 
Q 1172 725 1289 603 
Q 1406 481 1766 481 
L 2356 481 
L 2356 0 
L 1766 0 
Q 1100 0 847 248 
Q 594 497 594 1153 
L 594 3053 
L 172 3053 
L 172 3500 
L 594 3500 
L 594 4494 
L 1172 4494 
z
" transform="scale(0.015625)"/>
      <path id="DejaVuSans-69" d="M 603 3500 
L 1178 3500 
L 1178 0 
L 603 0 
L 603 3500 
z
M 603 4863 
L 1178 4863 
L 1178 4134 
L 603 4134 
L 603 4863 
z
" transform="scale(0.015625)"/>
      <path id="DejaVuSans-76" d="M 191 3500 
L 800 3500 
L 1894 563 
L 2988 3500 
L 3597 3500 
L 2284 0 
L 1503 0 
L 191 3500 
z
" transform="scale(0.015625)"/>
      <path id="DejaVuSans-20" transform="scale(0.015625)"/>
      <path id="DejaVuSans-53" d="M 3425 4513 
L 3425 3897 
Q 3066 4069 2747 4153 
Q 2428 4238 2131 4238 
Q 1616 4238 1336 4038 
Q 1056 3838 1056 3469 
Q 1056 3159 1242 3001 
Q 1428 2844 1947 2747 
L 2328 2669 
Q 3034 2534 3370 2195 
Q 3706 1856 3706 1288 
Q 3706 609 3251 259 
Q 2797 -91 1919 -91 
Q 1588 -91 1214 -16 
Q 841 59 441 206 
L 441 856 
Q 825 641 1194 531 
Q 1563 422 1919 422 
Q 2459 422 2753 634 
Q 3047 847 3047 1241 
Q 3047 1584 2836 1778 
Q 2625 1972 2144 2069 
L 1759 2144 
Q 1053 2284 737 2584 
Q 422 2884 422 3419 
Q 422 4038 858 4394 
Q 1294 4750 2059 4750 
Q 2388 4750 2728 4690 
Q 3069 4631 3425 4513 
z
" transform="scale(0.015625)"/>
      <path id="DejaVuSans-6b" d="M 581 4863 
L 1159 4863 
L 1159 1991 
L 2875 3500 
L 3609 3500 
L 1753 1863 
L 3688 0 
L 2938 0 
L 1159 1709 
L 1159 0 
L 581 0 
L 581 4863 
z
" transform="scale(0.015625)"/>
      <path id="DejaVuSans-56" d="M 1831 0 
L 50 4666 
L 709 4666 
L 2188 738 
L 3669 4666 
L 4325 4666 
L 2547 0 
L 1831 0 
z
" transform="scale(0.015625)"/>
     </defs>
     <use xlink:href="#DejaVuSans-43"/>
     <use xlink:href="#DejaVuSans-75" x="69.824219"/>
     <use xlink:href="#DejaVuSans-6d" x="133.203125"/>
     <use xlink:href="#DejaVuSans-75" x="230.615234"/>
     <use xlink:href="#DejaVuSans-6c" x="293.994141"/>
     <use xlink:href="#DejaVuSans-61" x="321.777344"/>
     <use xlink:href="#DejaVuSans-74" x="383.056641"/>
     <use xlink:href="#DejaVuSans-69" x="422.265625"/>
     <use xlink:href="#DejaVuSans-76" x="450.048828"/>
     <use xlink:href="#DejaVuSans-65" x="509.228516"/>
     <use xlink:href="#DejaVuSans-20" x="570.751953"/>
     <use xlink:href="#DejaVuSans-53" x="602.539062"/>
     <use xlink:href="#DejaVuSans-74" x="666.015625"/>
     <use xlink:href="#DejaVuSans-61" x="705.224609"/>
     <use xlink:href="#DejaVuSans-6b" x="766.503906"/>
     <use xlink:href="#DejaVuSans-65" x="820.789062"/>
     <use xlink:href="#DejaVuSans-20" x="882.3125"/>
     <use xlink:href="#DejaVuSans-56" x="914.099609"/>
     <use xlink:href="#DejaVuSans-61" x="974.757812"/>
     <use xlink:href="#DejaVuSans-6c" x="1036.037109"/>
     <use xlink:href="#DejaVuSans-75" x="1063.820312"/>
     <use xlink:href="#DejaVuSans-65" x="1127.199219"/>
    </g>
   </g>
  </g>
  <g id="axes_2">
   <g id="patch_7">
    <path d="M 62.934875 514.669657 
L 569.99952 514.669657 
L 569.99952 279.654381 
L 62.934875 279.654381 
L 62.934875 514.669657 
z
" style="fill: none"/>
   </g>
   <g id="matplotlib.axis_3">
    <g id="xtick_6">
     <g id="line2d_28">
      <path d="M 137.897448 514.669657 
L 137.897448 279.654381 
" clip-path="url(#pa7f0aaffbb)" style="fill: none; stroke: #ffc1a8; stroke-width: 0.8; stroke-linecap: square"/>
     </g>
     <g id="line2d_29">
      <g>
       <use xlink:href="#m8f8b59042f" x="137.897448" y="514.669657" style="fill: #ffc1a8; stroke: #ffc1a8; stroke-width: 0.8"/>
      </g>
     </g>
     <g id="text_12">
      <!-- 2021 -->
      <g style="fill: #ffc1a8" transform="translate(104.661974 549.46949) rotate(-30) scale(0.144 -0.144)">
       <use xlink:href="#DejaVuSans-32"/>
       <use xlink:href="#DejaVuSans-30" x="63.623047"/>
       <use xlink:href="#DejaVuSans-32" x="127.246094"/>
       <use xlink:href="#DejaVuSans-31" x="190.869141"/>
      </g>
     </g>
    </g>
    <g id="xtick_7">
     <g id="line2d_30">
      <path d="M 239.645805 514.669657 
L 239.645805 279.654381 
" clip-path="url(#pa7f0aaffbb)" style="fill: none; stroke: #ffc1a8; stroke-width: 0.8; stroke-linecap: square"/>
     </g>
     <g id="line2d_31">
      <g>
       <use xlink:href="#m8f8b59042f" x="239.645805" y="514.669657" style="fill: #ffc1a8; stroke: #ffc1a8; stroke-width: 0.8"/>
      </g>
     </g>
     <g id="text_13">
      <!-- Jul -->
      <g style="fill: #ffc1a8" transform="translate(223.101672 539.83274) rotate(-30) scale(0.144 -0.144)">
       <defs>
        <path id="DejaVuSans-4a" d="M 628 4666 
L 1259 4666 
L 1259 325 
Q 1259 -519 939 -900 
Q 619 -1281 -91 -1281 
L -331 -1281 
L -331 -750 
L -134 -750 
Q 284 -750 456 -515 
Q 628 -281 628 325 
L 628 4666 
z
" transform="scale(0.015625)"/>
       </defs>
       <use xlink:href="#DejaVuSans-4a"/>
       <use xlink:href="#DejaVuSans-75" x="29.492188"/>
       <use xlink:href="#DejaVuSans-6c" x="92.871094"/>
      </g>
     </g>
    </g>
    <g id="xtick_8">
     <g id="line2d_32">
      <path d="M 343.080599 514.669657 
L 343.080599 279.654381 
" clip-path="url(#pa7f0aaffbb)" style="fill: none; stroke: #ffc1a8; stroke-width: 0.8; stroke-linecap: square"/>
     </g>
     <g id="line2d_33">
      <g>
       <use xlink:href="#m8f8b59042f" x="343.080599" y="514.669657" style="fill: #ffc1a8; stroke: #ffc1a8; stroke-width: 0.8"/>
      </g>
     </g>
     <g id="text_14">
      <!-- 2022 -->
      <g style="fill: #ffc1a8" transform="translate(309.845125 549.46949) rotate(-30) scale(0.144 -0.144)">
       <use xlink:href="#DejaVuSans-32"/>
       <use xlink:href="#DejaVuSans-30" x="63.623047"/>
       <use xlink:href="#DejaVuSans-32" x="127.246094"/>
       <use xlink:href="#DejaVuSans-32" x="190.869141"/>
      </g>
     </g>
    </g>
    <g id="xtick_9">
     <g id="line2d_34">
      <path d="M 444.828956 514.669657 
L 444.828956 279.654381 
" clip-path="url(#pa7f0aaffbb)" style="fill: none; stroke: #ffc1a8; stroke-width: 0.8; stroke-linecap: square"/>
     </g>
     <g id="line2d_35">
      <g>
       <use xlink:href="#m8f8b59042f" x="444.828956" y="514.669657" style="fill: #ffc1a8; stroke: #ffc1a8; stroke-width: 0.8"/>
      </g>
     </g>
     <g id="text_15">
      <!-- Jul -->
      <g style="fill: #ffc1a8" transform="translate(428.284823 539.83274) rotate(-30) scale(0.144 -0.144)">
       <use xlink:href="#DejaVuSans-4a"/>
       <use xlink:href="#DejaVuSans-75" x="29.492188"/>
       <use xlink:href="#DejaVuSans-6c" x="92.871094"/>
      </g>
     </g>
    </g>
    <g id="xtick_10">
     <g id="line2d_36">
      <path d="M 548.26375 514.669657 
L 548.26375 279.654381 
" clip-path="url(#pa7f0aaffbb)" style="fill: none; stroke: #ffc1a8; stroke-width: 0.8; stroke-linecap: square"/>
     </g>
     <g id="line2d_37">
      <g>
       <use xlink:href="#m8f8b59042f" x="548.26375" y="514.669657" style="fill: #ffc1a8; stroke: #ffc1a8; stroke-width: 0.8"/>
      </g>
     </g>
     <g id="text_16">
      <!-- 2023 -->
      <g style="fill: #ffc1a8" transform="translate(515.028276 549.46949) rotate(-30) scale(0.144 -0.144)">
       <use xlink:href="#DejaVuSans-32"/>
       <use xlink:href="#DejaVuSans-30" x="63.623047"/>
       <use xlink:href="#DejaVuSans-32" x="127.246094"/>
       <use xlink:href="#DejaVuSans-33" x="190.869141"/>
      </g>
     </g>
    </g>
    <g id="text_17">
     <!-- Start of Tournament Round -->
     <g style="fill: #ffc1a8" transform="translate(219.512448 567.00477) scale(0.144 -0.144)">
      <defs>
       <path id="DejaVuSans-72" d="M 2631 2963 
Q 2534 3019 2420 3045 
Q 2306 3072 2169 3072 
Q 1681 3072 1420 2755 
Q 1159 2438 1159 1844 
L 1159 0 
L 581 0 
L 581 3500 
L 1159 3500 
L 1159 2956 
Q 1341 3275 1631 3429 
Q 1922 3584 2338 3584 
Q 2397 3584 2469 3576 
Q 2541 3569 2628 3553 
L 2631 2963 
z
" transform="scale(0.015625)"/>
       <path id="DejaVuSans-6f" d="M 1959 3097 
Q 1497 3097 1228 2736 
Q 959 2375 959 1747 
Q 959 1119 1226 758 
Q 1494 397 1959 397 
Q 2419 397 2687 759 
Q 2956 1122 2956 1747 
Q 2956 2369 2687 2733 
Q 2419 3097 1959 3097 
z
M 1959 3584 
Q 2709 3584 3137 3096 
Q 3566 2609 3566 1747 
Q 3566 888 3137 398 
Q 2709 -91 1959 -91 
Q 1206 -91 779 398 
Q 353 888 353 1747 
Q 353 2609 779 3096 
Q 1206 3584 1959 3584 
z
" transform="scale(0.015625)"/>
       <path id="DejaVuSans-66" d="M 2375 4863 
L 2375 4384 
L 1825 4384 
Q 1516 4384 1395 4259 
Q 1275 4134 1275 3809 
L 1275 3500 
L 2222 3500 
L 2222 3053 
L 1275 3053 
L 1275 0 
L 697 0 
L 697 3053 
L 147 3053 
L 147 3500 
L 697 3500 
L 697 3744 
Q 697 4328 969 4595 
Q 1241 4863 1831 4863 
L 2375 4863 
z
" transform="scale(0.015625)"/>
       <path id="DejaVuSans-54" d="M -19 4666 
L 3928 4666 
L 3928 4134 
L 2272 4134 
L 2272 0 
L 1638 0 
L 1638 4134 
L -19 4134 
L -19 4666 
z
" transform="scale(0.015625)"/>
       <path id="DejaVuSans-6e" d="M 3513 2113 
L 3513 0 
L 2938 0 
L 2938 2094 
Q 2938 2591 2744 2837 
Q 2550 3084 2163 3084 
Q 1697 3084 1428 2787 
Q 1159 2491 1159 1978 
L 1159 0 
L 581 0 
L 581 3500 
L 1159 3500 
L 1159 2956 
Q 1366 3272 1645 3428 
Q 1925 3584 2291 3584 
Q 2894 3584 3203 3211 
Q 3513 2838 3513 2113 
z
" transform="scale(0.015625)"/>
       <path id="DejaVuSans-64" d="M 2906 2969 
L 2906 4863 
L 3481 4863 
L 3481 0 
L 2906 0 
L 2906 525 
Q 2725 213 2448 61 
Q 2172 -91 1784 -91 
Q 1150 -91 751 415 
Q 353 922 353 1747 
Q 353 2572 751 3078 
Q 1150 3584 1784 3584 
Q 2172 3584 2448 3432 
Q 2725 3281 2906 2969 
z
M 947 1747 
Q 947 1113 1208 752 
Q 1469 391 1925 391 
Q 2381 391 2643 752 
Q 2906 1113 2906 1747 
Q 2906 2381 2643 2742 
Q 2381 3103 1925 3103 
Q 1469 3103 1208 2742 
Q 947 2381 947 1747 
z
" transform="scale(0.015625)"/>
      </defs>
      <use xlink:href="#DejaVuSans-53"/>
      <use xlink:href="#DejaVuSans-74" x="63.476562"/>
      <use xlink:href="#DejaVuSans-61" x="102.685547"/>
      <use xlink:href="#DejaVuSans-72" x="163.964844"/>
      <use xlink:href="#DejaVuSans-74" x="205.078125"/>
      <use xlink:href="#DejaVuSans-20" x="244.287109"/>
      <use xlink:href="#DejaVuSans-6f" x="276.074219"/>
      <use xlink:href="#DejaVuSans-66" x="337.255859"/>
      <use xlink:href="#DejaVuSans-20" x="372.460938"/>
      <use xlink:href="#DejaVuSans-54" x="404.248047"/>
      <use xlink:href="#DejaVuSans-6f" x="448.332031"/>
      <use xlink:href="#DejaVuSans-75" x="509.513672"/>
      <use xlink:href="#DejaVuSans-72" x="572.892578"/>
      <use xlink:href="#DejaVuSans-6e" x="612.255859"/>
      <use xlink:href="#DejaVuSans-61" x="675.634766"/>
      <use xlink:href="#DejaVuSans-6d" x="736.914062"/>
      <use xlink:href="#DejaVuSans-65" x="834.326172"/>
      <use xlink:href="#DejaVuSans-6e" x="895.849609"/>
      <use xlink:href="#DejaVuSans-74" x="959.228516"/>
      <use xlink:href="#DejaVuSans-20" x="998.4375"/>
      <use xlink:href="#DejaVuSans-52" x="1030.224609"/>
      <use xlink:href="#DejaVuSans-6f" x="1095.207031"/>
      <use xlink:href="#DejaVuSans-75" x="1156.388672"/>
      <use xlink:href="#DejaVuSans-6e" x="1219.767578"/>
      <use xlink:href="#DejaVuSans-64" x="1283.146484"/>
     </g>
    </g>
   </g>
   <g id="matplotlib.axis_4">
    <g id="ytick_9">
     <g id="line2d_38">
      <path d="M 62.934875 504.032638 
L 569.99952 504.032638 
" clip-path="url(#pa7f0aaffbb)" style="fill: none; stroke: #ffc1a8; stroke-width: 0.8; stroke-linecap: square"/>
     </g>
     <g id="line2d_39">
      <g>
       <use xlink:href="#m0790fdc57b" x="62.934875" y="504.032638" style="fill: #ffc1a8; stroke: #ffc1a8; stroke-width: 0.8"/>
      </g>
     </g>
     <g id="text_18">
      <!-- 0.0 -->
      <g style="fill: #ffc1a8" transform="translate(33.034375 509.503513) scale(0.144 -0.144)">
       <use xlink:href="#DejaVuSans-30"/>
       <use xlink:href="#DejaVuSans-2e" x="63.623047"/>
       <use xlink:href="#DejaVuSans-30" x="95.410156"/>
      </g>
     </g>
    </g>
    <g id="ytick_10">
     <g id="line2d_40">
      <path d="M 62.934875 470.965149 
L 569.99952 470.965149 
" clip-path="url(#pa7f0aaffbb)" style="fill: none; stroke: #ffc1a8; stroke-width: 0.8; stroke-linecap: square"/>
     </g>
     <g id="line2d_41">
      <g>
       <use xlink:href="#m0790fdc57b" x="62.934875" y="470.965149" style="fill: #ffc1a8; stroke: #ffc1a8; stroke-width: 0.8"/>
      </g>
     </g>
     <g id="text_19">
      <!-- 0.5 -->
      <g style="fill: #ffc1a8" transform="translate(33.034375 476.436024) scale(0.144 -0.144)">
       <defs>
        <path id="DejaVuSans-35" d="M 691 4666 
L 3169 4666 
L 3169 4134 
L 1269 4134 
L 1269 2991 
Q 1406 3038 1543 3061 
Q 1681 3084 1819 3084 
Q 2600 3084 3056 2656 
Q 3513 2228 3513 1497 
Q 3513 744 3044 326 
Q 2575 -91 1722 -91 
Q 1428 -91 1123 -41 
Q 819 9 494 109 
L 494 744 
Q 775 591 1075 516 
Q 1375 441 1709 441 
Q 2250 441 2565 725 
Q 2881 1009 2881 1497 
Q 2881 1984 2565 2268 
Q 2250 2553 1709 2553 
Q 1456 2553 1204 2497 
Q 953 2441 691 2322 
L 691 4666 
z
" transform="scale(0.015625)"/>
       </defs>
       <use xlink:href="#DejaVuSans-30"/>
       <use xlink:href="#DejaVuSans-2e" x="63.623047"/>
       <use xlink:href="#DejaVuSans-35" x="95.410156"/>
      </g>
     </g>
    </g>
    <g id="ytick_11">
     <g id="line2d_42">
      <path d="M 62.934875 437.897659 
L 569.99952 437.897659 
" clip-path="url(#pa7f0aaffbb)" style="fill: none; stroke: #ffc1a8; stroke-width: 0.8; stroke-linecap: square"/>
     </g>
     <g id="line2d_43">
      <g>
       <use xlink:href="#m0790fdc57b" x="62.934875" y="437.897659" style="fill: #ffc1a8; stroke: #ffc1a8; stroke-width: 0.8"/>
      </g>
     </g>
     <g id="text_20">
      <!-- 1.0 -->
      <g style="fill: #ffc1a8" transform="translate(33.034375 443.368534) scale(0.144 -0.144)">
       <use xlink:href="#DejaVuSans-31"/>
       <use xlink:href="#DejaVuSans-2e" x="63.623047"/>
       <use xlink:href="#DejaVuSans-30" x="95.410156"/>
      </g>
     </g>
    </g>
    <g id="ytick_12">
     <g id="line2d_44">
      <path d="M 62.934875 404.83017 
L 569.99952 404.83017 
" clip-path="url(#pa7f0aaffbb)" style="fill: none; stroke: #ffc1a8; stroke-width: 0.8; stroke-linecap: square"/>
     </g>
     <g id="line2d_45">
      <g>
       <use xlink:href="#m0790fdc57b" x="62.934875" y="404.83017" style="fill: #ffc1a8; stroke: #ffc1a8; stroke-width: 0.8"/>
      </g>
     </g>
     <g id="text_21">
      <!-- 1.5 -->
      <g style="fill: #ffc1a8" transform="translate(33.034375 410.301045) scale(0.144 -0.144)">
       <use xlink:href="#DejaVuSans-31"/>
       <use xlink:href="#DejaVuSans-2e" x="63.623047"/>
       <use xlink:href="#DejaVuSans-35" x="95.410156"/>
      </g>
     </g>
    </g>
    <g id="ytick_13">
     <g id="line2d_46">
      <path d="M 62.934875 371.762681 
L 569.99952 371.762681 
" clip-path="url(#pa7f0aaffbb)" style="fill: none; stroke: #ffc1a8; stroke-width: 0.8; stroke-linecap: square"/>
     </g>
     <g id="line2d_47">
      <g>
       <use xlink:href="#m0790fdc57b" x="62.934875" y="371.762681" style="fill: #ffc1a8; stroke: #ffc1a8; stroke-width: 0.8"/>
      </g>
     </g>
     <g id="text_22">
      <!-- 2.0 -->
      <g style="fill: #ffc1a8" transform="translate(33.034375 377.233556) scale(0.144 -0.144)">
       <use xlink:href="#DejaVuSans-32"/>
       <use xlink:href="#DejaVuSans-2e" x="63.623047"/>
       <use xlink:href="#DejaVuSans-30" x="95.410156"/>
      </g>
     </g>
    </g>
    <g id="ytick_14">
     <g id="line2d_48">
      <path d="M 62.934875 338.695191 
L 569.99952 338.695191 
" clip-path="url(#pa7f0aaffbb)" style="fill: none; stroke: #ffc1a8; stroke-width: 0.8; stroke-linecap: square"/>
     </g>
     <g id="line2d_49">
      <g>
       <use xlink:href="#m0790fdc57b" x="62.934875" y="338.695191" style="fill: #ffc1a8; stroke: #ffc1a8; stroke-width: 0.8"/>
      </g>
     </g>
     <g id="text_23">
      <!-- 2.5 -->
      <g style="fill: #ffc1a8" transform="translate(33.034375 344.166066) scale(0.144 -0.144)">
       <use xlink:href="#DejaVuSans-32"/>
       <use xlink:href="#DejaVuSans-2e" x="63.623047"/>
       <use xlink:href="#DejaVuSans-35" x="95.410156"/>
      </g>
     </g>
    </g>
    <g id="ytick_15">
     <g id="line2d_50">
      <path d="M 62.934875 305.627702 
L 569.99952 305.627702 
" clip-path="url(#pa7f0aaffbb)" style="fill: none; stroke: #ffc1a8; stroke-width: 0.8; stroke-linecap: square"/>
     </g>
     <g id="line2d_51">
      <g>
       <use xlink:href="#m0790fdc57b" x="62.934875" y="305.627702" style="fill: #ffc1a8; stroke: #ffc1a8; stroke-width: 0.8"/>
      </g>
     </g>
     <g id="text_24">
      <!-- 3.0 -->
      <g style="fill: #ffc1a8" transform="translate(33.034375 311.098577) scale(0.144 -0.144)">
       <use xlink:href="#DejaVuSans-33"/>
       <use xlink:href="#DejaVuSans-2e" x="63.623047"/>
       <use xlink:href="#DejaVuSans-30" x="95.410156"/>
      </g>
     </g>
    </g>
    <g id="text_25">
     <!-- USD -->
     <g style="fill: #fff3a8" transform="translate(22.795312 429.2128) rotate(-90) scale(0.3 -0.3)">
      <defs>
       <path id="DejaVuSans-55" d="M 556 4666 
L 1191 4666 
L 1191 1831 
Q 1191 1081 1462 751 
Q 1734 422 2344 422 
Q 2950 422 3222 751 
Q 3494 1081 3494 1831 
L 3494 4666 
L 4128 4666 
L 4128 1753 
Q 4128 841 3676 375 
Q 3225 -91 2344 -91 
Q 1459 -91 1007 375 
Q 556 841 556 1753 
L 556 4666 
z
" transform="scale(0.015625)"/>
       <path id="DejaVuSans-44" d="M 1259 4147 
L 1259 519 
L 2022 519 
Q 2988 519 3436 956 
Q 3884 1394 3884 2338 
Q 3884 3275 3436 3711 
Q 2988 4147 2022 4147 
L 1259 4147 
z
M 628 4666 
L 1925 4666 
Q 3281 4666 3915 4102 
Q 4550 3538 4550 2338 
Q 4550 1131 3912 565 
Q 3275 0 1925 0 
L 628 0 
L 628 4666 
z
" transform="scale(0.015625)"/>
      </defs>
      <use xlink:href="#DejaVuSans-55"/>
      <use xlink:href="#DejaVuSans-53" x="73.193359"/>
      <use xlink:href="#DejaVuSans-44" x="136.669922"/>
     </g>
    </g>
    <g id="text_26">
     <!-- 1e4 -->
     <g style="fill: #ffc1a8" transform="translate(62.934875 276.654381) scale(0.144 -0.144)">
      <use xlink:href="#DejaVuSans-31"/>
      <use xlink:href="#DejaVuSans-65" x="63.623047"/>
      <use xlink:href="#DejaVuSans-34" x="125.146484"/>
     </g>
    </g>
   </g>
   <g id="line2d_52">
    <path d="M 85.983268 503.987144 
L 89.919686 503.043566 
L 93.85518 499.129977 
L 97.792379 498.429657 
L 101.766079 497.839272 
L 105.676491 496.958877 
L 109.6996 497.36143 
L 113.548248 499.062532 
L 117.484087 497.334842 
L 121.777806 498.191583 
L 125.355823 498.48021 
L 129.358235 495.986333 
L 133.227404 495.268838 
L 137.246127 494.318811 
L 141.098731 489.565558 
L 145.037043 488.16174 
L 148.9735 487.712708 
L 152.906886 485.973598 
L 156.775886 482.178701 
L 160.748466 475.822977 
L 164.666387 468.042464 
L 168.585687 472.204686 
L 172.520771 468.870519 
L 176.46352 465.551543 
L 180.398774 454.275831 
L 184.359799 449.008608 
L 188.277401 436.775911 
L 192.221828 400.701337 
L 196.125331 362.910831 
L 200.06346 325.722627 
L 204.001082 318.095486 
L 207.935978 291.809697 
L 211.87576 290.336894 
L 215.80763 360.869836 
L 219.745232 350.874491 
L 223.719303 322.329063 
L 223.719303 315.754695 
L 227.615954 342.796817 
L 227.615954 342.796748 
L 231.551852 350.765457 
L 235.485485 382.527223 
L 239.448098 343.468785 
L 239.448098 340.071085 
L 243.440581 360.279699 
L 243.440581 360.279577 
L 247.291129 372.201947 
L 247.291129 369.795608 
L 251.226519 369.874233 
L 251.226519 370.844159 
L 255.290578 352.718743 
L 255.290578 352.718814 
L 259.097599 338.244822 
L 259.097599 343.228744 
L 263.032423 340.914029 
L 263.032423 340.914013 
L 266.970695 356.480173 
L 270.986172 343.298439 
L 274.849394 336.718815 
L 278.77347 356.19898 
L 282.711931 335.752202 
L 286.652572 343.093251 
L 290.581664 349.323395 
L 294.630648 330.981725 
L 298.499185 326.273501 
L 302.389012 330.920696 
L 306.326673 334.898824 
L 310.261302 323.172 
L 314.203999 312.856236 
L 318.131835 336.496881 
L 322.070062 342.36253 
L 326.007833 334.882795 
L 329.938337 358.828559 
L 333.87456 378.73552 
L 337.811317 364.940771 
L 341.748763 362.203042 
L 345.683236 358.910291 
L 350.190655 371.374171 
L 354.116682 374.374983 
L 358.054233 368.094317 
L 361.988068 388.696045 
L 365.926158 358.316618 
L 369.864938 353.670848 
L 373.788754 341.48847 
L 377.72402 328.712256 
L 381.658051 343.339137 
L 385.592608 345.800806 
L 389.532878 337.021377 
L 393.469595 330.857062 
L 397.373137 339.087444 
L 401.320206 351.016869 
L 405.232759 352.809356 
L 409.17219 363.609719 
L 413.102941 370.113141 
L 417.07664 434.003015 
L 420.973324 425.75142 
L 424.987747 432.271598 
L 428.842784 438.183342 
L 432.792605 435.087231 
L 436.714078 453.541654 
L 440.6847 447.75409 
L 444.604723 295.42087 
L 448.58539 384.617056 
L 452.454169 399.789796 
L 456.486093 362.88596 
L 460.349953 373.639723 
L 464.403752 341.822798 
L 468.285367 337.709475 
L 472.241194 339.523849 
L 476.084005 358.429071 
L 480.06656 367.050954 
L 484.041411 359.420228 
L 487.893227 366.280468 
L 491.828585 377.345723 
L 495.767456 383.350429 
L 499.702196 367.383502 
L 503.631262 385.766323 
L 507.568747 380.989573 
L 511.550638 373.718643 
L 515.447394 374.51392 
L 519.356407 407.149377 
L 523.320367 412.69239 
L 527.203348 410.300571 
L 531.142805 403.213248 
L 535.145952 379.567767 
L 539.051023 382.740239 
L 542.986758 390.840358 
L 546.951127 394.782287 
" clip-path="url(#pa7f0aaffbb)" style="fill: none; stroke: #fff3a8; stroke-width: 3; stroke-linecap: square"/>
   </g>
   <g id="patch_8">
    <path d="M 62.934875 514.669657 
L 62.934875 279.654381 
" style="fill: none; stroke: #ffc1a8; stroke-width: 0.8; stroke-linejoin: miter; stroke-linecap: square"/>
   </g>
   <g id="patch_9">
    <path d="M 569.99952 514.669657 
L 569.99952 279.654381 
" style="fill: none; stroke: #ffc1a8; stroke-width: 0.8; stroke-linejoin: miter; stroke-linecap: square"/>
   </g>
   <g id="patch_10">
    <path d="M 62.934875 514.669657 
L 569.99952 514.669657 
" style="fill: none; stroke: #ffc1a8; stroke-width: 0.8; stroke-linejoin: miter; stroke-linecap: square"/>
   </g>
   <g id="patch_11">
    <path d="M 62.934875 279.654381 
L 569.99952 279.654381 
" style="fill: none; stroke: #ffc1a8; stroke-width: 0.8; stroke-linejoin: miter; stroke-linecap: square"/>
   </g>
  </g>
 </g>
 <defs>
  <clipPath id="p819e7c756c">
   <rect x="62.934875" y="21.196875" width="507.064645" height="235.015276"/>
  </clipPath>
  <clipPath id="pa7f0aaffbb">
   <rect x="62.934875" y="279.654381" width="507.064645" height="235.015276"/>
  </clipPath>
 </defs>
</svg>
