<?xml version="1.0" encoding="utf-8" standalone="no"?>
<!DOCTYPE svg PUBLIC "-//W3C//DTD SVG 1.1//EN"
  "http://www.w3.org/Graphics/SVG/1.1/DTD/svg11.dtd">
<svg xmlns:xlink="http://www.w3.org/1999/xlink" width="433.430025pt" height="311.215387pt" viewBox="0 0 433.430025 311.215387" xmlns="http://www.w3.org/2000/svg" version="1.1">
 <metadata>
  <rdf:RDF xmlns:dc="http://purl.org/dc/elements/1.1/" xmlns:cc="http://creativecommons.org/ns#" xmlns:rdf="http://www.w3.org/1999/02/22-rdf-syntax-ns#">
   <cc:Work>
    <dc:type rdf:resource="http://purl.org/dc/dcmitype/StillImage"/>
    <dc:date>2022-06-15T12:36:05.602855</dc:date>
    <dc:format>image/svg+xml</dc:format>
    <dc:creator>
     <cc:Agent>
      <dc:title>Matplotlib v3.5.1, https://matplotlib.org/</dc:title>
     </cc:Agent>
    </dc:creator>
   </cc:Work>
  </rdf:RDF>
 </metadata>
 <defs>
  <style type="text/css">*{stroke-linejoin: round; stroke-linecap: butt}</style>
 </defs>
 <g id="figure_1">
  <g id="patch_1">
   <path d="M 0 311.215387 
L 433.430025 311.215387 
L 433.430025 0 
L 0 0 
L 0 311.215387 
z
" style="fill: none"/>
  </g>
  <g id="axes_1">
   <g id="patch_2">
    <path d="M 88.357031 244.317187 
L 423.157031 244.317187 
L 423.157031 26.877187 
L 88.357031 26.877187 
L 88.357031 244.317187 
z
" style="fill: none"/>
   </g>
   <g id="matplotlib.axis_1">
    <g id="xtick_1">
     <g id="line2d_1">
      <defs>
       <path id="mdb789feb12" d="M 0 0 
L 0 9 
" style="stroke: #ffc1a8; stroke-width: 1.875"/>
      </defs>
      <g>
       <use xlink:href="#mdb789feb12" x="103.575213" y="244.317187" style="fill: #ffc1a8; stroke: #ffc1a8; stroke-width: 1.875"/>
      </g>
     </g>
     <g id="text_1">
      <!-- 0 -->
      <g style="fill: #ffc1a8" transform="translate(100.199915 272.189081)rotate(-20)scale(0.165 -0.165)">
       <defs>
        <path id="DejaVuSans-30" d="M 2034 4250 
Q 1547 4250 1301 3770 
Q 1056 3291 1056 2328 
Q 1056 1369 1301 889 
Q 1547 409 2034 409 
Q 2525 409 2770 889 
Q 3016 1369 3016 2328 
Q 3016 3291 2770 3770 
Q 2525 4250 2034 4250 
z
M 2034 4750 
Q 2819 4750 3233 4129 
Q 3647 3509 3647 2328 
Q 3647 1150 3233 529 
Q 2819 -91 2034 -91 
Q 1250 -91 836 529 
Q 422 1150 422 2328 
Q 422 3509 836 4129 
Q 1250 4750 2034 4750 
z
" transform="scale(0.015625)"/>
       </defs>
       <use xlink:href="#DejaVuSans-30"/>
      </g>
     </g>
    </g>
    <g id="xtick_2">
     <g id="line2d_2">
      <g>
       <use xlink:href="#mdb789feb12" x="179.856826" y="244.317187" style="fill: #ffc1a8; stroke: #ffc1a8; stroke-width: 1.875"/>
      </g>
     </g>
     <g id="text_2">
      <!-- 100 -->
      <g style="fill: #ffc1a8" transform="translate(166.616517 279.370221)rotate(-20)scale(0.165 -0.165)">
       <defs>
        <path id="DejaVuSans-31" d="M 794 531 
L 1825 531 
L 1825 4091 
L 703 3866 
L 703 4441 
L 1819 4666 
L 2450 4666 
L 2450 531 
L 3481 531 
L 3481 0 
L 794 0 
L 794 531 
z
" transform="scale(0.015625)"/>
       </defs>
       <use xlink:href="#DejaVuSans-31"/>
       <use xlink:href="#DejaVuSans-30" x="63.623047"/>
       <use xlink:href="#DejaVuSans-30" x="127.246094"/>
      </g>
     </g>
    </g>
    <g id="xtick_3">
     <g id="line2d_3">
      <g>
       <use xlink:href="#mdb789feb12" x="256.138439" y="244.317187" style="fill: #ffc1a8; stroke: #ffc1a8; stroke-width: 1.875"/>
      </g>
     </g>
     <g id="text_3">
      <!-- 200 -->
      <g style="fill: #ffc1a8" transform="translate(242.89813 279.370221)rotate(-20)scale(0.165 -0.165)">
       <defs>
        <path id="DejaVuSans-32" d="M 1228 531 
L 3431 531 
L 3431 0 
L 469 0 
L 469 531 
Q 828 903 1448 1529 
Q 2069 2156 2228 2338 
Q 2531 2678 2651 2914 
Q 2772 3150 2772 3378 
Q 2772 3750 2511 3984 
Q 2250 4219 1831 4219 
Q 1534 4219 1204 4116 
Q 875 4013 500 3803 
L 500 4441 
Q 881 4594 1212 4672 
Q 1544 4750 1819 4750 
Q 2544 4750 2975 4387 
Q 3406 4025 3406 3419 
Q 3406 3131 3298 2873 
Q 3191 2616 2906 2266 
Q 2828 2175 2409 1742 
Q 1991 1309 1228 531 
z
" transform="scale(0.015625)"/>
       </defs>
       <use xlink:href="#DejaVuSans-32"/>
       <use xlink:href="#DejaVuSans-30" x="63.623047"/>
       <use xlink:href="#DejaVuSans-30" x="127.246094"/>
      </g>
     </g>
    </g>
    <g id="xtick_4">
     <g id="line2d_4">
      <g>
       <use xlink:href="#mdb789feb12" x="332.420052" y="244.317187" style="fill: #ffc1a8; stroke: #ffc1a8; stroke-width: 1.875"/>
      </g>
     </g>
     <g id="text_4">
      <!-- 300 -->
      <g style="fill: #ffc1a8" transform="translate(319.179744 279.370221)rotate(-20)scale(0.165 -0.165)">
       <defs>
        <path id="DejaVuSans-33" d="M 2597 2516 
Q 3050 2419 3304 2112 
Q 3559 1806 3559 1356 
Q 3559 666 3084 287 
Q 2609 -91 1734 -91 
Q 1441 -91 1130 -33 
Q 819 25 488 141 
L 488 750 
Q 750 597 1062 519 
Q 1375 441 1716 441 
Q 2309 441 2620 675 
Q 2931 909 2931 1356 
Q 2931 1769 2642 2001 
Q 2353 2234 1838 2234 
L 1294 2234 
L 1294 2753 
L 1863 2753 
Q 2328 2753 2575 2939 
Q 2822 3125 2822 3475 
Q 2822 3834 2567 4026 
Q 2313 4219 1838 4219 
Q 1578 4219 1281 4162 
Q 984 4106 628 3988 
L 628 4550 
Q 988 4650 1302 4700 
Q 1616 4750 1894 4750 
Q 2613 4750 3031 4423 
Q 3450 4097 3450 3541 
Q 3450 3153 3228 2886 
Q 3006 2619 2597 2516 
z
" transform="scale(0.015625)"/>
       </defs>
       <use xlink:href="#DejaVuSans-33"/>
       <use xlink:href="#DejaVuSans-30" x="63.623047"/>
       <use xlink:href="#DejaVuSans-30" x="127.246094"/>
      </g>
     </g>
    </g>
    <g id="xtick_5">
     <g id="line2d_5">
      <g>
       <use xlink:href="#mdb789feb12" x="408.701666" y="244.317187" style="fill: #ffc1a8; stroke: #ffc1a8; stroke-width: 1.875"/>
      </g>
     </g>
     <g id="text_5">
      <!-- 400 -->
      <g style="fill: #ffc1a8" transform="translate(395.461357 279.370221)rotate(-20)scale(0.165 -0.165)">
       <defs>
        <path id="DejaVuSans-34" d="M 2419 4116 
L 825 1625 
L 2419 1625 
L 2419 4116 
z
M 2253 4666 
L 3047 4666 
L 3047 1625 
L 3713 1625 
L 3713 1100 
L 3047 1100 
L 3047 0 
L 2419 0 
L 2419 1100 
L 313 1100 
L 313 1709 
L 2253 4666 
z
" transform="scale(0.015625)"/>
       </defs>
       <use xlink:href="#DejaVuSans-34"/>
       <use xlink:href="#DejaVuSans-30" x="63.623047"/>
       <use xlink:href="#DejaVuSans-30" x="127.246094"/>
      </g>
     </g>
    </g>
    <g id="text_6">
     <!-- Training Epoch -->
     <g style="fill: #ffc1a8" transform="translate(189.830625 300.271949)scale(0.18 -0.18)">
      <defs>
       <path id="DejaVuSans-54" d="M -19 4666 
L 3928 4666 
L 3928 4134 
L 2272 4134 
L 2272 0 
L 1638 0 
L 1638 4134 
L -19 4134 
L -19 4666 
z
" transform="scale(0.015625)"/>
       <path id="DejaVuSans-72" d="M 2631 2963 
Q 2534 3019 2420 3045 
Q 2306 3072 2169 3072 
Q 1681 3072 1420 2755 
Q 1159 2438 1159 1844 
L 1159 0 
L 581 0 
L 581 3500 
L 1159 3500 
L 1159 2956 
Q 1341 3275 1631 3429 
Q 1922 3584 2338 3584 
Q 2397 3584 2469 3576 
Q 2541 3569 2628 3553 
L 2631 2963 
z
" transform="scale(0.015625)"/>
       <path id="DejaVuSans-61" d="M 2194 1759 
Q 1497 1759 1228 1600 
Q 959 1441 959 1056 
Q 959 750 1161 570 
Q 1363 391 1709 391 
Q 2188 391 2477 730 
Q 2766 1069 2766 1631 
L 2766 1759 
L 2194 1759 
z
M 3341 1997 
L 3341 0 
L 2766 0 
L 2766 531 
Q 2569 213 2275 61 
Q 1981 -91 1556 -91 
Q 1019 -91 701 211 
Q 384 513 384 1019 
Q 384 1609 779 1909 
Q 1175 2209 1959 2209 
L 2766 2209 
L 2766 2266 
Q 2766 2663 2505 2880 
Q 2244 3097 1772 3097 
Q 1472 3097 1187 3025 
Q 903 2953 641 2809 
L 641 3341 
Q 956 3463 1253 3523 
Q 1550 3584 1831 3584 
Q 2591 3584 2966 3190 
Q 3341 2797 3341 1997 
z
" transform="scale(0.015625)"/>
       <path id="DejaVuSans-69" d="M 603 3500 
L 1178 3500 
L 1178 0 
L 603 0 
L 603 3500 
z
M 603 4863 
L 1178 4863 
L 1178 4134 
L 603 4134 
L 603 4863 
z
" transform="scale(0.015625)"/>
       <path id="DejaVuSans-6e" d="M 3513 2113 
L 3513 0 
L 2938 0 
L 2938 2094 
Q 2938 2591 2744 2837 
Q 2550 3084 2163 3084 
Q 1697 3084 1428 2787 
Q 1159 2491 1159 1978 
L 1159 0 
L 581 0 
L 581 3500 
L 1159 3500 
L 1159 2956 
Q 1366 3272 1645 3428 
Q 1925 3584 2291 3584 
Q 2894 3584 3203 3211 
Q 3513 2838 3513 2113 
z
" transform="scale(0.015625)"/>
       <path id="DejaVuSans-67" d="M 2906 1791 
Q 2906 2416 2648 2759 
Q 2391 3103 1925 3103 
Q 1463 3103 1205 2759 
Q 947 2416 947 1791 
Q 947 1169 1205 825 
Q 1463 481 1925 481 
Q 2391 481 2648 825 
Q 2906 1169 2906 1791 
z
M 3481 434 
Q 3481 -459 3084 -895 
Q 2688 -1331 1869 -1331 
Q 1566 -1331 1297 -1286 
Q 1028 -1241 775 -1147 
L 775 -588 
Q 1028 -725 1275 -790 
Q 1522 -856 1778 -856 
Q 2344 -856 2625 -561 
Q 2906 -266 2906 331 
L 2906 616 
Q 2728 306 2450 153 
Q 2172 0 1784 0 
Q 1141 0 747 490 
Q 353 981 353 1791 
Q 353 2603 747 3093 
Q 1141 3584 1784 3584 
Q 2172 3584 2450 3431 
Q 2728 3278 2906 2969 
L 2906 3500 
L 3481 3500 
L 3481 434 
z
" transform="scale(0.015625)"/>
       <path id="DejaVuSans-20" transform="scale(0.015625)"/>
       <path id="DejaVuSans-45" d="M 628 4666 
L 3578 4666 
L 3578 4134 
L 1259 4134 
L 1259 2753 
L 3481 2753 
L 3481 2222 
L 1259 2222 
L 1259 531 
L 3634 531 
L 3634 0 
L 628 0 
L 628 4666 
z
" transform="scale(0.015625)"/>
       <path id="DejaVuSans-70" d="M 1159 525 
L 1159 -1331 
L 581 -1331 
L 581 3500 
L 1159 3500 
L 1159 2969 
Q 1341 3281 1617 3432 
Q 1894 3584 2278 3584 
Q 2916 3584 3314 3078 
Q 3713 2572 3713 1747 
Q 3713 922 3314 415 
Q 2916 -91 2278 -91 
Q 1894 -91 1617 61 
Q 1341 213 1159 525 
z
M 3116 1747 
Q 3116 2381 2855 2742 
Q 2594 3103 2138 3103 
Q 1681 3103 1420 2742 
Q 1159 2381 1159 1747 
Q 1159 1113 1420 752 
Q 1681 391 2138 391 
Q 2594 391 2855 752 
Q 3116 1113 3116 1747 
z
" transform="scale(0.015625)"/>
       <path id="DejaVuSans-6f" d="M 1959 3097 
Q 1497 3097 1228 2736 
Q 959 2375 959 1747 
Q 959 1119 1226 758 
Q 1494 397 1959 397 
Q 2419 397 2687 759 
Q 2956 1122 2956 1747 
Q 2956 2369 2687 2733 
Q 2419 3097 1959 3097 
z
M 1959 3584 
Q 2709 3584 3137 3096 
Q 3566 2609 3566 1747 
Q 3566 888 3137 398 
Q 2709 -91 1959 -91 
Q 1206 -91 779 398 
Q 353 888 353 1747 
Q 353 2609 779 3096 
Q 1206 3584 1959 3584 
z
" transform="scale(0.015625)"/>
       <path id="DejaVuSans-63" d="M 3122 3366 
L 3122 2828 
Q 2878 2963 2633 3030 
Q 2388 3097 2138 3097 
Q 1578 3097 1268 2742 
Q 959 2388 959 1747 
Q 959 1106 1268 751 
Q 1578 397 2138 397 
Q 2388 397 2633 464 
Q 2878 531 3122 666 
L 3122 134 
Q 2881 22 2623 -34 
Q 2366 -91 2075 -91 
Q 1284 -91 818 406 
Q 353 903 353 1747 
Q 353 2603 823 3093 
Q 1294 3584 2113 3584 
Q 2378 3584 2631 3529 
Q 2884 3475 3122 3366 
z
" transform="scale(0.015625)"/>
       <path id="DejaVuSans-68" d="M 3513 2113 
L 3513 0 
L 2938 0 
L 2938 2094 
Q 2938 2591 2744 2837 
Q 2550 3084 2163 3084 
Q 1697 3084 1428 2787 
Q 1159 2491 1159 1978 
L 1159 0 
L 581 0 
L 581 4863 
L 1159 4863 
L 1159 2956 
Q 1366 3272 1645 3428 
Q 1925 3584 2291 3584 
Q 2894 3584 3203 3211 
Q 3513 2838 3513 2113 
z
" transform="scale(0.015625)"/>
      </defs>
      <use xlink:href="#DejaVuSans-54"/>
      <use xlink:href="#DejaVuSans-72" x="46.333984"/>
      <use xlink:href="#DejaVuSans-61" x="87.447266"/>
      <use xlink:href="#DejaVuSans-69" x="148.726562"/>
      <use xlink:href="#DejaVuSans-6e" x="176.509766"/>
      <use xlink:href="#DejaVuSans-69" x="239.888672"/>
      <use xlink:href="#DejaVuSans-6e" x="267.671875"/>
      <use xlink:href="#DejaVuSans-67" x="331.050781"/>
      <use xlink:href="#DejaVuSans-20" x="394.527344"/>
      <use xlink:href="#DejaVuSans-45" x="426.314453"/>
      <use xlink:href="#DejaVuSans-70" x="489.498047"/>
      <use xlink:href="#DejaVuSans-6f" x="552.974609"/>
      <use xlink:href="#DejaVuSans-63" x="614.15625"/>
      <use xlink:href="#DejaVuSans-68" x="669.136719"/>
     </g>
    </g>
   </g>
   <g id="matplotlib.axis_2">
    <g id="ytick_1">
     <g id="line2d_6">
      <defs>
       <path id="mf8fc5c425c" d="M 0 0 
L -9 0 
" style="stroke: #ffc1a8; stroke-width: 1.875"/>
      </defs>
      <g>
       <use xlink:href="#mf8fc5c425c" x="88.357031" y="234.433551" style="fill: #ffc1a8; stroke: #ffc1a8; stroke-width: 1.875"/>
      </g>
     </g>
     <g id="text_7">
      <!-- 0.000 -->
      <g style="fill: #ffc1a8" transform="translate(28.620625 240.702262)scale(0.165 -0.165)">
       <defs>
        <path id="DejaVuSans-2e" d="M 684 794 
L 1344 794 
L 1344 0 
L 684 0 
L 684 794 
z
" transform="scale(0.015625)"/>
       </defs>
       <use xlink:href="#DejaVuSans-30"/>
       <use xlink:href="#DejaVuSans-2e" x="63.623047"/>
       <use xlink:href="#DejaVuSans-30" x="95.410156"/>
       <use xlink:href="#DejaVuSans-30" x="159.033203"/>
       <use xlink:href="#DejaVuSans-30" x="222.65625"/>
      </g>
     </g>
    </g>
    <g id="ytick_2">
     <g id="line2d_7">
      <g>
       <use xlink:href="#mf8fc5c425c" x="88.357031" y="189.941056" style="fill: #ffc1a8; stroke: #ffc1a8; stroke-width: 1.875"/>
      </g>
     </g>
     <g id="text_8">
      <!-- 0.005 -->
      <g style="fill: #ffc1a8" transform="translate(28.620625 196.209766)scale(0.165 -0.165)">
       <defs>
        <path id="DejaVuSans-35" d="M 691 4666 
L 3169 4666 
L 3169 4134 
L 1269 4134 
L 1269 2991 
Q 1406 3038 1543 3061 
Q 1681 3084 1819 3084 
Q 2600 3084 3056 2656 
Q 3513 2228 3513 1497 
Q 3513 744 3044 326 
Q 2575 -91 1722 -91 
Q 1428 -91 1123 -41 
Q 819 9 494 109 
L 494 744 
Q 775 591 1075 516 
Q 1375 441 1709 441 
Q 2250 441 2565 725 
Q 2881 1009 2881 1497 
Q 2881 1984 2565 2268 
Q 2250 2553 1709 2553 
Q 1456 2553 1204 2497 
Q 953 2441 691 2322 
L 691 4666 
z
" transform="scale(0.015625)"/>
       </defs>
       <use xlink:href="#DejaVuSans-30"/>
       <use xlink:href="#DejaVuSans-2e" x="63.623047"/>
       <use xlink:href="#DejaVuSans-30" x="95.410156"/>
       <use xlink:href="#DejaVuSans-30" x="159.033203"/>
       <use xlink:href="#DejaVuSans-35" x="222.65625"/>
      </g>
     </g>
    </g>
    <g id="ytick_3">
     <g id="line2d_8">
      <g>
       <use xlink:href="#mf8fc5c425c" x="88.357031" y="145.44856" style="fill: #ffc1a8; stroke: #ffc1a8; stroke-width: 1.875"/>
      </g>
     </g>
     <g id="text_9">
      <!-- 0.010 -->
      <g style="fill: #ffc1a8" transform="translate(28.620625 151.717271)scale(0.165 -0.165)">
       <use xlink:href="#DejaVuSans-30"/>
       <use xlink:href="#DejaVuSans-2e" x="63.623047"/>
       <use xlink:href="#DejaVuSans-30" x="95.410156"/>
       <use xlink:href="#DejaVuSans-31" x="159.033203"/>
       <use xlink:href="#DejaVuSans-30" x="222.65625"/>
      </g>
     </g>
    </g>
    <g id="ytick_4">
     <g id="line2d_9">
      <g>
       <use xlink:href="#mf8fc5c425c" x="88.357031" y="100.956064" style="fill: #ffc1a8; stroke: #ffc1a8; stroke-width: 1.875"/>
      </g>
     </g>
     <g id="text_10">
      <!-- 0.015 -->
      <g style="fill: #ffc1a8" transform="translate(28.620625 107.224775)scale(0.165 -0.165)">
       <use xlink:href="#DejaVuSans-30"/>
       <use xlink:href="#DejaVuSans-2e" x="63.623047"/>
       <use xlink:href="#DejaVuSans-30" x="95.410156"/>
       <use xlink:href="#DejaVuSans-31" x="159.033203"/>
       <use xlink:href="#DejaVuSans-35" x="222.65625"/>
      </g>
     </g>
    </g>
    <g id="ytick_5">
     <g id="line2d_10">
      <g>
       <use xlink:href="#mf8fc5c425c" x="88.357031" y="56.463569" style="fill: #ffc1a8; stroke: #ffc1a8; stroke-width: 1.875"/>
      </g>
     </g>
     <g id="text_11">
      <!-- 0.020 -->
      <g style="fill: #ffc1a8" transform="translate(28.620625 62.73228)scale(0.165 -0.165)">
       <use xlink:href="#DejaVuSans-30"/>
       <use xlink:href="#DejaVuSans-2e" x="63.623047"/>
       <use xlink:href="#DejaVuSans-30" x="95.410156"/>
       <use xlink:href="#DejaVuSans-32" x="159.033203"/>
       <use xlink:href="#DejaVuSans-30" x="222.65625"/>
      </g>
     </g>
    </g>
    <g id="text_12">
     <!-- Margin Ranking Loss -->
     <g style="fill: #ffc1a8" transform="translate(20.877187 228.19875)rotate(-90)scale(0.18 -0.18)">
      <defs>
       <path id="DejaVuSans-4d" d="M 628 4666 
L 1569 4666 
L 2759 1491 
L 3956 4666 
L 4897 4666 
L 4897 0 
L 4281 0 
L 4281 4097 
L 3078 897 
L 2444 897 
L 1241 4097 
L 1241 0 
L 628 0 
L 628 4666 
z
" transform="scale(0.015625)"/>
       <path id="DejaVuSans-52" d="M 2841 2188 
Q 3044 2119 3236 1894 
Q 3428 1669 3622 1275 
L 4263 0 
L 3584 0 
L 2988 1197 
Q 2756 1666 2539 1819 
Q 2322 1972 1947 1972 
L 1259 1972 
L 1259 0 
L 628 0 
L 628 4666 
L 2053 4666 
Q 2853 4666 3247 4331 
Q 3641 3997 3641 3322 
Q 3641 2881 3436 2590 
Q 3231 2300 2841 2188 
z
M 1259 4147 
L 1259 2491 
L 2053 2491 
Q 2509 2491 2742 2702 
Q 2975 2913 2975 3322 
Q 2975 3731 2742 3939 
Q 2509 4147 2053 4147 
L 1259 4147 
z
" transform="scale(0.015625)"/>
       <path id="DejaVuSans-6b" d="M 581 4863 
L 1159 4863 
L 1159 1991 
L 2875 3500 
L 3609 3500 
L 1753 1863 
L 3688 0 
L 2938 0 
L 1159 1709 
L 1159 0 
L 581 0 
L 581 4863 
z
" transform="scale(0.015625)"/>
       <path id="DejaVuSans-4c" d="M 628 4666 
L 1259 4666 
L 1259 531 
L 3531 531 
L 3531 0 
L 628 0 
L 628 4666 
z
" transform="scale(0.015625)"/>
       <path id="DejaVuSans-73" d="M 2834 3397 
L 2834 2853 
Q 2591 2978 2328 3040 
Q 2066 3103 1784 3103 
Q 1356 3103 1142 2972 
Q 928 2841 928 2578 
Q 928 2378 1081 2264 
Q 1234 2150 1697 2047 
L 1894 2003 
Q 2506 1872 2764 1633 
Q 3022 1394 3022 966 
Q 3022 478 2636 193 
Q 2250 -91 1575 -91 
Q 1294 -91 989 -36 
Q 684 19 347 128 
L 347 722 
Q 666 556 975 473 
Q 1284 391 1588 391 
Q 1994 391 2212 530 
Q 2431 669 2431 922 
Q 2431 1156 2273 1281 
Q 2116 1406 1581 1522 
L 1381 1569 
Q 847 1681 609 1914 
Q 372 2147 372 2553 
Q 372 3047 722 3315 
Q 1072 3584 1716 3584 
Q 2034 3584 2315 3537 
Q 2597 3491 2834 3397 
z
" transform="scale(0.015625)"/>
      </defs>
      <use xlink:href="#DejaVuSans-4d"/>
      <use xlink:href="#DejaVuSans-61" x="86.279297"/>
      <use xlink:href="#DejaVuSans-72" x="147.558594"/>
      <use xlink:href="#DejaVuSans-67" x="186.921875"/>
      <use xlink:href="#DejaVuSans-69" x="250.398438"/>
      <use xlink:href="#DejaVuSans-6e" x="278.181641"/>
      <use xlink:href="#DejaVuSans-20" x="341.560547"/>
      <use xlink:href="#DejaVuSans-52" x="373.347656"/>
      <use xlink:href="#DejaVuSans-61" x="440.580078"/>
      <use xlink:href="#DejaVuSans-6e" x="501.859375"/>
      <use xlink:href="#DejaVuSans-6b" x="565.238281"/>
      <use xlink:href="#DejaVuSans-69" x="623.148438"/>
      <use xlink:href="#DejaVuSans-6e" x="650.931641"/>
      <use xlink:href="#DejaVuSans-67" x="714.310547"/>
      <use xlink:href="#DejaVuSans-20" x="777.787109"/>
      <use xlink:href="#DejaVuSans-4c" x="809.574219"/>
      <use xlink:href="#DejaVuSans-6f" x="863.537109"/>
      <use xlink:href="#DejaVuSans-73" x="924.71875"/>
      <use xlink:href="#DejaVuSans-73" x="976.818359"/>
     </g>
    </g>
   </g>
   <g id="line2d_11">
    <path d="M 103.575213 234.433551 
L 200.452862 234.382281 
L 201.215678 231.272929 
L 201.978494 232.539989 
L 202.74131 229.366455 
L 203.504126 232.762697 
L 204.266942 233.555764 
L 205.029759 223.609457 
L 205.792575 231.107797 
L 206.555391 227.033396 
L 207.318207 234.27043 
L 208.081023 234.433551 
L 209.606655 234.433551 
L 210.369471 232.34805 
L 211.132288 232.888341 
L 211.895104 234.433551 
L 212.65792 223.430517 
L 214.183552 229.820553 
L 214.946368 232.392562 
L 215.709184 230.201816 
L 216.472 220.391851 
L 217.234817 231.690068 
L 217.997633 224.025731 
L 218.760449 224.811922 
L 219.523265 221.099819 
L 220.286081 227.968228 
L 221.048897 233.636553 
L 221.811713 231.108058 
L 222.57453 232.718917 
L 223.337346 231.589977 
L 224.100162 234.433551 
L 224.862978 232.289008 
L 225.625794 234.4113 
L 226.38861 234.281179 
L 227.151426 233.076393 
L 227.914242 233.64372 
L 228.677059 233.404188 
L 229.439875 234.432054 
L 230.202691 234.180964 
L 230.965507 232.363259 
L 231.728323 233.686049 
L 232.491139 234.104367 
L 234.016772 230.4727 
L 234.779588 226.580053 
L 235.542404 231.199205 
L 236.30522 233.014939 
L 237.068036 231.624028 
L 237.830852 233.637538 
L 238.593668 230.330621 
L 239.356484 233.931333 
L 240.119301 230.599004 
L 240.882117 232.190577 
L 242.407749 226.601769 
L 243.170565 230.2491 
L 243.933381 222.122219 
L 245.459013 234.032842 
L 246.22183 226.528275 
L 246.984646 233.60417 
L 247.747462 234.433551 
L 248.510278 218.700343 
L 249.273094 226.634225 
L 250.03591 229.547873 
L 250.798726 215.633436 
L 251.561543 232.027409 
L 252.324359 231.974096 
L 253.087175 205.308656 
L 253.849991 198.251232 
L 254.612807 185.285156 
L 255.375623 227.25312 
L 256.138439 203.975155 
L 256.901255 221.341032 
L 258.426888 230.943545 
L 259.189704 191.671692 
L 259.95252 230.434616 
L 260.715336 229.896616 
L 261.478152 233.498428 
L 262.240968 234.280612 
L 263.003784 231.311707 
L 263.766601 230.026413 
L 264.529417 232.848697 
L 265.292233 234.433551 
L 266.055049 157.808334 
L 266.817865 226.627888 
L 267.580681 228.009846 
L 268.343497 230.386179 
L 269.106314 209.529007 
L 269.86913 221.747962 
L 270.631946 228.628514 
L 271.394762 180.846029 
L 272.157578 212.985324 
L 272.920394 219.427158 
L 274.446026 191.561698 
L 275.208843 187.626683 
L 275.971659 224.26061 
L 277.497291 232.929951 
L 278.260107 229.888376 
L 279.022923 234.433551 
L 281.311372 234.433551 
L 282.837004 230.14371 
L 283.59982 232.295245 
L 284.362636 229.807962 
L 285.125452 232.296231 
L 285.888268 186.404996 
L 286.651085 202.335733 
L 287.413901 221.307135 
L 288.176717 183.017847 
L 288.939533 189.973357 
L 289.702349 225.761806 
L 290.465165 220.927189 
L 291.227981 214.492932 
L 291.990797 216.790913 
L 292.753614 211.508154 
L 293.51643 176.755092 
L 294.279246 191.844563 
L 295.042062 202.400991 
L 295.804878 154.763196 
L 296.567694 205.150013 
L 297.33051 214.451079 
L 298.093327 230.758296 
L 298.856143 234.433551 
L 299.618959 227.101404 
L 300.381775 234.371974 
L 301.144591 233.485189 
L 301.907407 234.377897 
L 302.670223 210.517657 
L 303.433039 218.315205 
L 304.195856 222.291458 
L 304.958672 233.565763 
L 305.721488 233.296337 
L 306.484304 205.504004 
L 307.24712 193.283338 
L 308.009936 226.182197 
L 308.772752 217.64613 
L 309.535569 184.574796 
L 310.298385 223.687493 
L 311.061201 215.930165 
L 311.824017 200.744306 
L 312.586833 170.304631 
L 313.349649 214.819475 
L 314.112465 214.857346 
L 314.875281 214.279946 
L 315.638098 192.299962 
L 316.400914 151.864779 
L 317.16373 181.141068 
L 317.926546 193.726041 
L 318.689362 187.149762 
L 319.452178 213.052089 
L 320.214994 217.782904 
L 320.97781 217.173214 
L 321.740627 215.63465 
L 322.503443 234.433551 
L 323.266259 231.41766 
L 324.029075 233.702528 
L 324.791891 109.239761 
L 325.554707 223.949689 
L 326.317523 219.579898 
L 327.08034 176.738227 
L 327.843156 222.351915 
L 328.605972 184.761892 
L 329.368788 230.746735 
L 330.131604 208.568177 
L 330.89442 172.400653 
L 331.657236 178.505029 
L 332.420052 232.230576 
L 333.182869 124.95272 
L 333.945685 156.277987 
L 334.708501 130.348562 
L 335.471317 180.384315 
L 336.234133 171.010326 
L 336.996949 218.110731 
L 337.759765 233.084902 
L 338.522581 230.97083 
L 339.285398 234.003018 
L 340.048214 232.56251 
L 340.81103 215.388921 
L 341.573846 183.139937 
L 342.336662 189.058348 
L 343.099478 216.149155 
L 343.862294 167.760454 
L 344.625111 189.538502 
L 345.387927 206.4536 
L 346.150743 176.373794 
L 346.913559 193.160092 
L 347.676375 193.05984 
L 348.439191 233.353922 
L 349.202007 214.342829 
L 349.964823 233.987602 
L 350.72764 200.20538 
L 351.490456 187.408589 
L 352.253272 230.66498 
L 353.016088 225.236562 
L 353.778904 234.028372 
L 354.54172 225.956201 
L 355.304536 207.30077 
L 356.067353 231.108755 
L 356.830169 219.648507 
L 357.592985 234.132763 
L 358.355801 158.818656 
L 359.118617 205.770894 
L 359.881433 189.650037 
L 360.644249 196.449686 
L 361.407065 233.892365 
L 362.169882 232.235312 
L 362.932698 231.670686 
L 363.695514 174.187079 
L 364.45833 213.966387 
L 365.221146 230.754812 
L 365.983962 176.24062 
L 366.746778 162.249504 
L 367.509594 36.760824 
L 368.272411 159.221886 
L 369.035227 110.343722 
L 369.798043 122.264404 
L 370.560859 92.136173 
L 371.323675 151.4778 
L 372.086491 171.065773 
L 373.612124 73.516749 
L 374.37494 218.985688 
L 375.137756 192.141843 
L 375.900572 198.610647 
L 376.663388 231.209946 
L 377.426204 219.344627 
L 378.18902 230.02248 
L 378.951836 189.78653 
L 379.714653 220.888417 
L 380.477469 230.115031 
L 381.240285 223.208129 
L 382.003101 221.840534 
L 382.765917 194.485429 
L 383.528733 195.661184 
L 384.291549 151.740866 
L 385.054365 151.821461 
L 385.817182 169.729703 
L 386.579998 233.345992 
L 387.342814 229.984168 
L 388.10563 225.882297 
L 388.868446 225.339586 
L 389.631262 234.433551 
L 390.394078 225.411762 
L 391.156895 225.03586 
L 391.919711 217.309088 
L 392.682527 203.738134 
L 394.208159 152.981908 
L 394.970975 227.183601 
L 395.733791 169.971769 
L 396.496607 97.979011 
L 397.259424 221.954395 
L 398.02224 134.905606 
L 398.785056 97.648535 
L 399.547872 175.555876 
L 400.310688 198.464603 
L 401.073504 224.788314 
L 401.83632 202.989507 
L 402.599137 234.433551 
L 403.361953 190.158882 
L 404.124769 181.279794 
L 404.887585 155.055086 
L 405.650401 83.672378 
L 406.413217 199.091054 
L 407.176033 177.22874 
L 407.938849 160.149243 
L 407.938849 160.149243 
" clip-path="url(#p9dcf36843d)" style="fill: none; stroke: #ffc1a8; stroke-width: 2.25; stroke-linecap: round"/>
   </g>
   <g id="patch_3">
    <path d="M 88.357031 244.317187 
L 88.357031 26.877187 
" style="fill: none; stroke: #ffc1a8; stroke-width: 1.875; stroke-linejoin: miter; stroke-linecap: square"/>
   </g>
   <g id="patch_4">
    <path d="M 423.157031 244.317187 
L 423.157031 26.877187 
" style="fill: none; stroke: #ffc1a8; stroke-width: 1.875; stroke-linejoin: miter; stroke-linecap: square"/>
   </g>
   <g id="patch_5">
    <path d="M 88.357031 244.317187 
L 423.157031 244.317187 
" style="fill: none; stroke: #ffc1a8; stroke-width: 1.875; stroke-linejoin: miter; stroke-linecap: square"/>
   </g>
   <g id="patch_6">
    <path d="M 88.357031 26.877187 
L 423.157031 26.877187 
" style="fill: none; stroke: #ffc1a8; stroke-width: 1.875; stroke-linejoin: miter; stroke-linecap: square"/>
   </g>
   <g id="text_13">
    <!-- Margin = -1 -->
    <g style="fill: #ffc1a8" transform="translate(202.780781 20.877187)scale(0.18 -0.18)">
     <defs>
      <path id="DejaVuSans-3d" d="M 678 2906 
L 4684 2906 
L 4684 2381 
L 678 2381 
L 678 2906 
z
M 678 1631 
L 4684 1631 
L 4684 1100 
L 678 1100 
L 678 1631 
z
" transform="scale(0.015625)"/>
      <path id="DejaVuSans-2d" d="M 313 2009 
L 1997 2009 
L 1997 1497 
L 313 1497 
L 313 2009 
z
" transform="scale(0.015625)"/>
     </defs>
     <use xlink:href="#DejaVuSans-4d"/>
     <use xlink:href="#DejaVuSans-61" x="86.279297"/>
     <use xlink:href="#DejaVuSans-72" x="147.558594"/>
     <use xlink:href="#DejaVuSans-67" x="186.921875"/>
     <use xlink:href="#DejaVuSans-69" x="250.398438"/>
     <use xlink:href="#DejaVuSans-6e" x="278.181641"/>
     <use xlink:href="#DejaVuSans-20" x="341.560547"/>
     <use xlink:href="#DejaVuSans-3d" x="373.347656"/>
     <use xlink:href="#DejaVuSans-20" x="457.136719"/>
     <use xlink:href="#DejaVuSans-2d" x="488.923828"/>
     <use xlink:href="#DejaVuSans-31" x="525.007812"/>
    </g>
   </g>
  </g>
 </g>
 <defs>
  <clipPath id="p9dcf36843d">
   <rect x="88.357031" y="26.877187" width="334.8" height="217.44"/>
  </clipPath>
 </defs>
</svg>
